<svg width="25" height="24" viewBox="0 0 25 24" fill="none" xmlns="http://www.w3.org/2000/svg">
<path d="M17.5 9.002C19.675 9.014 20.853 9.111 21.621 9.879C22.5 10.758 22.5 12.172 22.5 15V16C22.5 18.829 22.5 20.243 21.621 21.122C20.743 22 19.328 22 16.5 22H8.5C5.672 22 4.257 22 3.379 21.122C2.5 20.242 2.5 18.829 2.5 16V15C2.5 12.172 2.5 10.758 3.379 9.879C4.147 9.111 5.325 9.014 7.5 9.002" stroke="#000200" stroke-width="2" stroke-linecap="round"/>
<path d="M12.5 15V2M12.5 2L15.5 5.5M12.5 2L9.5 5.5" stroke="#000200" stroke-width="2" stroke-linecap="round" stroke-linejoin="round"/>
</svg>
