<svg width="24" height="25" viewBox="0 0 24 25" fill="none" xmlns="http://www.w3.org/2000/svg">
<path d="M5.99998 14.9001C7.32546 14.9001 8.39998 13.8256 8.39998 12.5001C8.39998 11.1746 7.32546 10.1001 5.99998 10.1001C4.67449 10.1001 3.59998 11.1746 3.59998 12.5001C3.59998 13.8256 4.67449 14.9001 5.99998 14.9001Z" fill="white"/>
<path d="M12 14.9001C13.3255 14.9001 14.4 13.8256 14.4 12.5001C14.4 11.1746 13.3255 10.1001 12 10.1001C10.6745 10.1001 9.59998 11.1746 9.59998 12.5001C9.59998 13.8256 10.6745 14.9001 12 14.9001Z" fill="white"/>
<path d="M18 14.9001C19.3255 14.9001 20.4 13.8256 20.4 12.5001C20.4 11.1746 19.3255 10.1001 18 10.1001C16.6745 10.1001 15.6 11.1746 15.6 12.5001C15.6 13.8256 16.6745 14.9001 18 14.9001Z" fill="white"/>
</svg>
