<svg width="26" height="26" viewBox="0 0 26 26" fill="none" xmlns="http://www.w3.org/2000/svg">
<g clip-path="url(#clip0_98_569)">
<path fill-rule="evenodd" clip-rule="evenodd" d="M13 2.16675C15.5859 2.16675 18.0658 3.19398 19.8943 5.02246C21.7228 6.85094 22.75 9.33089 22.75 11.9167C22.75 15.2469 20.9343 17.9726 19.0212 19.928C18.0651 20.8942 17.0222 21.7704 15.9055 22.5453L15.444 22.8595L15.2273 23.0036L14.8189 23.2636L14.4549 23.4857L14.0043 23.7478C13.6982 23.922 13.3521 24.0136 13 24.0136C12.6479 24.0136 12.3018 23.922 11.9958 23.7478L11.5451 23.4857L10.9818 23.139L10.7737 23.0036L10.3296 22.7078C9.12489 21.8924 8.00266 20.9614 6.97883 19.928C5.06567 17.9715 3.25 15.2469 3.25 11.9167C3.25 9.33089 4.27723 6.85094 6.10571 5.02246C7.93419 3.19398 10.4141 2.16675 13 2.16675ZM13 4.33341C10.9888 4.33341 9.05992 5.13237 7.63777 6.55452C6.21562 7.97667 5.41667 9.90552 5.41667 11.9167C5.41667 14.4322 6.79467 16.6401 8.52692 18.4124C9.27184 19.1663 10.0769 19.8583 10.9341 20.4816L11.4303 20.8347C11.5906 20.9463 11.7444 21.0503 11.8928 21.1467L12.3153 21.4176L12.6869 21.644L13 21.8271L13.4929 21.5357L13.8905 21.2865C14.1018 21.1522 14.3293 21.0016 14.5698 20.8347L15.0659 20.4816C15.9231 19.8583 16.7282 19.1663 17.4731 18.4124C19.2053 16.6412 20.5833 14.4322 20.5833 11.9167C20.5833 9.90552 19.7844 7.97667 18.3622 6.55452C16.9401 5.13237 15.0112 4.33341 13 4.33341ZM13 7.58342C14.1493 7.58342 15.2515 8.03996 16.0641 8.85262C16.8768 9.66528 17.3333 10.7675 17.3333 11.9167C17.3333 13.066 16.8768 14.1682 16.0641 14.9809C15.2515 15.7935 14.1493 16.2501 13 16.2501C11.8507 16.2501 10.7485 15.7935 9.93587 14.9809C9.12321 14.1682 8.66667 13.066 8.66667 11.9167C8.66667 10.7675 9.12321 9.66528 9.93587 8.85262C10.7485 8.03996 11.8507 7.58342 13 7.58342ZM13 9.75008C12.4254 9.75008 11.8743 9.97836 11.4679 10.3847C11.0616 10.791 10.8333 11.3421 10.8333 11.9167C10.8333 12.4914 11.0616 13.0425 11.4679 13.4488C11.8743 13.8551 12.4254 14.0834 13 14.0834C13.5746 14.0834 14.1257 13.8551 14.5321 13.4488C14.9384 13.0425 15.1667 12.4914 15.1667 11.9167C15.1667 11.3421 14.9384 10.791 14.5321 10.3847C14.1257 9.97836 13.5746 9.75008 13 9.75008Z" fill="black"/>
</g>
<defs>
<clipPath id="clip0_98_569">
<rect width="26" height="26" fill="white"/>
</clipPath>
</defs>
</svg>
