<svg width="33" height="33" viewBox="0 0 33 33" fill="none" xmlns="http://www.w3.org/2000/svg">
<rect x="0.5" y="0.5" width="32" height="32" rx="6" fill="#EAEAEA"/>
<g clip-path="url(#clip0_369_45)">
<path d="M7.63891 13.7867L16.5 8.69611L25.3611 13.7867C25.5008 13.8597 25.6633 13.876 25.8147 13.8321C25.966 13.7882 26.0946 13.6875 26.1735 13.551C26.2524 13.4145 26.2755 13.2529 26.238 13.0998C26.2005 12.9467 26.1053 12.814 25.9722 12.7294L16.5 7.28445L7.0278 12.7294C6.95477 12.7677 6.89022 12.8202 6.83804 12.884C6.78585 12.9478 6.74711 13.0215 6.72415 13.1007C6.70119 13.1798 6.69447 13.2628 6.70441 13.3446C6.71435 13.4265 6.74073 13.5054 6.78198 13.5768C6.82323 13.6481 6.87848 13.7104 6.94442 13.7599C7.01036 13.8093 7.08562 13.8449 7.16567 13.8645C7.24573 13.8841 7.32892 13.8873 7.41025 13.874C7.49157 13.8606 7.56935 13.8309 7.63891 13.7867Z" fill="#6763EE"/>
<path d="M7.94434 21.3889C7.94434 21.551 8.00872 21.7064 8.12333 21.821C8.23793 21.9356 8.39337 22 8.55545 22H24.4443C24.6064 22 24.7619 21.9356 24.8765 21.821C24.9911 21.7064 25.0554 21.551 25.0554 21.3889C25.0554 21.2268 24.9911 21.0714 24.8765 20.9568C24.7619 20.8422 24.6064 20.7778 24.4443 20.7778H22.611V16.2739H21.3888V20.7778H17.111V16.2739H15.8888V20.7778H11.611V16.2739H10.3888V20.7778H8.55545C8.39337 20.7778 8.23793 20.8422 8.12333 20.9568C8.00872 21.0714 7.94434 21.2268 7.94434 21.3889Z" fill="#6763EE"/>
<path d="M8.56787 14.0556H24.4568V15.2778H8.56787V14.0556Z" fill="#6763EE"/>
<path d="M25.6666 23.2222H7.33328C7.1712 23.2222 7.01576 23.2866 6.90116 23.4012C6.78655 23.5158 6.72217 23.6713 6.72217 23.8333C6.72217 23.9954 6.78655 24.1508 6.90116 24.2655C7.01576 24.3801 7.1712 24.4444 7.33328 24.4444H25.6666C25.8287 24.4444 25.9841 24.3801 26.0987 24.2655C26.2133 24.1508 26.2777 23.9954 26.2777 23.8333C26.2777 23.6713 26.2133 23.5158 26.0987 23.4012C25.9841 23.2866 25.8287 23.2222 25.6666 23.2222Z" fill="#6763EE"/>
<path d="M19.0362 12.5767H20.9979L16.8973 10.2178C16.823 10.1749 16.7387 10.1523 16.6529 10.1523C16.5671 10.1523 16.4827 10.1749 16.4084 10.2178L12.3018 12.5767H14.2634L16.6468 11.2078L19.0362 12.5767Z" fill="#6763EE"/>
</g>
<defs>
<clipPath id="clip0_369_45">
<rect width="22" height="22" fill="white" transform="translate(5.5 5.5)"/>
</clipPath>
</defs>
</svg>
