<svg width="18" height="20" viewBox="0 0 18 20" fill="none" xmlns="http://www.w3.org/2000/svg">
<path d="M2.69365 10.991L4.045 6.93694H13.9549L15.3063 10.991M13.9549 15.4955C13.5965 15.4955 13.2528 15.3531 12.9994 15.0997C12.7459 14.8463 12.6036 14.5025 12.6036 14.1441C12.6036 13.7857 12.7459 13.442 12.9994 13.1886C13.2528 12.9352 13.5965 12.7928 13.9549 12.7928C14.3133 12.7928 14.657 12.9352 14.9105 13.1886C15.1639 13.442 15.3063 13.7857 15.3063 14.1441C15.3063 14.5025 15.1639 14.8463 14.9105 15.0997C14.657 15.3531 14.3133 15.4955 13.9549 15.4955ZM4.045 15.4955C3.6866 15.4955 3.34288 15.3531 3.08945 15.0997C2.83602 14.8463 2.69365 14.5025 2.69365 14.1441C2.69365 13.7857 2.83602 13.442 3.08945 13.1886C3.34288 12.9352 3.6866 12.7928 4.045 12.7928C4.4034 12.7928 4.74712 12.9352 5.00055 13.1886C5.25398 13.442 5.39635 13.7857 5.39635 14.1441C5.39635 14.5025 5.25398 14.8463 5.00055 15.0997C4.74712 15.3531 4.4034 15.4955 4.045 15.4955ZM15.2342 6.48649C15.054 5.96396 14.5495 5.58559 13.9549 5.58559H4.045C3.4504 5.58559 2.9459 5.96396 2.76572 6.48649L0.891846 11.8919V19.0991C0.891846 19.338 0.986762 19.5672 1.15571 19.7361C1.32467 19.9051 1.55381 20 1.79275 20H2.69365C2.93258 20 3.16173 19.9051 3.33068 19.7361C3.49963 19.5672 3.59455 19.338 3.59455 19.0991V18.1982H14.4054V19.0991C14.4054 19.338 14.5003 19.5672 14.6692 19.7361C14.8382 19.9051 15.0673 20 15.3063 20H16.2072C16.4461 20 16.6752 19.9051 16.8442 19.7361C17.0131 19.5672 17.1081 19.338 17.1081 19.0991V11.8919M4.49545 3.78378C4.85385 3.78378 5.19757 3.64141 5.451 3.38798C5.70443 3.13455 5.8468 2.79083 5.8468 2.43243C5.8468 1.53153 4.49545 0 4.49545 0C4.49545 0 3.1441 1.53153 3.1441 2.43243C3.1441 2.79083 3.28647 3.13455 3.5399 3.38798C3.79333 3.64141 4.13705 3.78378 4.49545 3.78378ZM8.99995 3.78378C9.35835 3.78378 9.70208 3.64141 9.9555 3.38798C10.2089 3.13455 10.3513 2.79083 10.3513 2.43243C10.3513 1.53153 8.99995 0 8.99995 0C8.99995 0 7.6486 1.53153 7.6486 2.43243C7.6486 2.79083 7.79098 3.13455 8.0444 3.38798C8.29783 3.64141 8.64155 3.78378 8.99995 3.78378ZM13.5045 3.78378C13.8629 3.78378 14.2066 3.64141 14.46 3.38798C14.7134 3.13455 14.8558 2.79083 14.8558 2.43243C14.8558 1.53153 13.5045 0 13.5045 0C13.5045 0 12.1531 1.53153 12.1531 2.43243C12.1531 2.79083 12.2955 3.13455 12.5489 3.38798C12.8023 3.64141 13.1461 3.78378 13.5045 3.78378Z" fill="black"/>
</svg>
