<svg width="26" height="26" viewBox="0 0 26 26" fill="none" xmlns="http://www.w3.org/2000/svg">
<path d="M12.1875 6.5H9.74996C7.70679 6.5 6.68629 6.5 6.05146 7.13483C5.41663 7.76967 5.41663 8.79017 5.41663 10.8333V17.6042H20.5833V10.8333C20.5833 8.79017 20.5833 7.76967 19.9485 7.13483C19.3136 6.5 18.2931 6.5 16.25 6.5H13.8125V11.8874L14.5491 11.0273C14.6186 10.9462 14.7033 10.8795 14.7984 10.8312C14.8936 10.7828 14.9974 10.7537 15.1038 10.7455C15.2102 10.7372 15.3173 10.75 15.4187 10.7831C15.5202 10.8162 15.6142 10.869 15.6953 10.9384C15.7764 11.0078 15.843 11.0926 15.8914 11.1877C15.9397 11.2829 15.9688 11.3867 15.9771 11.4931C15.9853 11.5995 15.9725 11.7065 15.9394 11.808C15.9063 11.9095 15.8536 12.0035 15.7841 12.0846L13.6175 14.612C13.5412 14.7012 13.4465 14.7728 13.3399 14.8219C13.2333 14.871 13.1173 14.8964 13 14.8964C12.8826 14.8964 12.7666 14.871 12.66 14.8219C12.5534 14.7728 12.4587 14.7012 12.3825 14.612L10.2158 12.0846C10.1464 12.0035 10.0936 11.9095 10.0605 11.808C10.0274 11.7065 10.0146 11.5995 10.0228 11.4931C10.0311 11.3867 10.0602 11.2829 10.1086 11.1877C10.1569 11.0926 10.2235 11.0078 10.3046 10.9384C10.3857 10.869 10.4797 10.8162 10.5812 10.7831C10.6827 10.75 10.7897 10.7372 10.8961 10.7455C11.0025 10.7537 11.1063 10.7828 11.2015 10.8312C11.2966 10.8795 11.3814 10.9462 11.4508 11.0273L12.1875 11.8874V6.5ZM5.44913 19.2292H20.5508C20.4945 20.085 20.346 20.6342 19.9485 21.0318C19.3136 21.6667 18.2931 21.6667 16.25 21.6667H9.74996C7.70679 21.6667 6.68629 21.6667 6.05146 21.0318C5.65388 20.6342 5.50438 20.0861 5.44913 19.2292Z" fill="#6763EE"/>
<path d="M6.37976 3.25H19.6192C21.9483 3.25 23.8333 5.2 23.8333 7.605C23.8333 9.0025 23.1974 10.2451 22.2083 11.0424V10.7369C22.2083 9.79875 22.2083 8.93858 22.1141 8.23983C22.0112 7.46958 21.7674 6.65492 21.0979 5.9865C20.4284 5.31592 19.6138 5.07217 18.8446 4.96817C18.1448 4.875 17.2846 4.875 16.3464 4.875H9.65251C8.71543 4.875 7.85526 4.875 7.15651 4.96925C6.38626 5.07217 5.5716 5.31592 4.90318 5.98542C4.2326 6.65492 3.98885 7.46958 3.88485 8.23875C3.79168 8.93858 3.79168 9.79875 3.79168 10.7369V11.0424C3.28111 10.6274 2.8701 10.1031 2.58888 9.50822C2.30766 8.91335 2.16339 8.26299 2.16668 7.605C2.16668 5.2 4.05276 3.25 6.37976 3.25Z" fill="#6763EE"/>
</svg>
