<svg width="24" height="24" viewBox="0 0 24 24" fill="none" xmlns="http://www.w3.org/2000/svg">
<path d="M15.24 2H11.346C9.582 2 8.184 2 7.091 2.148C5.965 2.3 5.054 2.62 4.336 3.341C3.617 4.062 3.298 4.977 3.147 6.107C3 7.205 3 8.608 3 10.379V16.217C3 17.725 3.92 19.017 5.227 19.559C5.16 18.649 5.16 17.374 5.16 16.312V11.302C5.16 10.021 5.16 8.916 5.278 8.032C5.405 7.084 5.691 6.176 6.425 5.439C7.159 4.702 8.064 4.415 9.008 4.287C9.888 4.169 10.988 4.169 12.265 4.169H15.335C16.611 4.169 17.709 4.169 18.59 4.287C18.326 3.61337 17.8652 3.03489 17.2676 2.62696C16.6701 2.21902 15.9635 2.00054 15.24 2Z" fill="black"/>
<path d="M6.59998 11.397C6.59998 8.67101 6.59998 7.30801 7.44398 6.46101C8.28698 5.61401 9.64398 5.61401 12.36 5.61401H15.24C17.955 5.61401 19.313 5.61401 20.157 6.46101C21 7.30801 21 8.67101 21 11.397V16.217C21 18.943 21 20.306 20.157 21.153C19.313 22 17.955 22 15.24 22H12.36C9.64498 22 8.28698 22 7.44398 21.153C6.59998 20.306 6.59998 18.943 6.59998 16.217V11.397Z" fill="black"/>
</svg>
