<svg width="34" height="35" viewBox="0 0 34 35" fill="none" xmlns="http://www.w3.org/2000/svg">
<rect x="1" y="1.5" width="32" height="32" rx="16" stroke="#6763EE" stroke-width="2"/>
<path d="M22 20.0341C22 20.6598 21.8239 21.24 21.4718 21.7747C21.1318 22.2981 20.6217 22.7304 19.9417 23.0717C19.2738 23.4016 18.4784 23.5836 17.5556 23.6177V25H16.3898V23.6007C15.1026 23.4983 14.0644 23.1399 13.275 22.5256C12.4857 21.8999 12.0668 21.0523 12.0182 19.9829H15.3333C15.4062 20.6655 15.7583 21.1035 16.3898 21.2969V18.6007C15.4426 18.3732 14.6837 18.1513 14.1129 17.9352C13.5543 17.719 13.0625 17.372 12.6375 16.8942C12.2125 16.4164 12 15.7622 12 14.9317C12 13.8965 12.4068 13.066 13.2204 12.4403C14.0461 11.8146 15.1026 11.4619 16.3898 11.3823V10H17.5556V11.3823C18.8306 11.4733 19.8385 11.8203 20.5792 12.4232C21.32 13.0262 21.7328 13.8623 21.8178 14.9317H18.4845C18.4117 14.3174 18.102 13.9192 17.5556 13.7372V16.3823C18.5634 16.6439 19.3406 16.8771 19.8871 17.0819C20.4335 17.2867 20.9192 17.628 21.3443 18.1058C21.7814 18.5722 22 19.215 22 20.0341ZM15.2969 14.7952C15.2969 15.0796 15.388 15.3185 15.5701 15.5119C15.7644 15.7053 16.0376 15.876 16.3898 16.0239V13.6519C16.0498 13.7088 15.7826 13.8339 15.5883 14.0273C15.394 14.2093 15.2969 14.4653 15.2969 14.7952ZM17.5556 21.3481C17.9199 21.2912 18.2052 21.1547 18.4117 20.9386C18.6302 20.7224 18.7395 20.4551 18.7395 20.1365C18.7395 19.8407 18.6363 19.6018 18.4299 19.4198C18.2356 19.2264 17.9441 19.0614 17.5556 18.9249V21.3481Z" fill="#6763EE"/>
</svg>
