<svg width="241" height="72" viewBox="0 0 241 72" fill="none" xmlns="http://www.w3.org/2000/svg">
<path d="M14.6444 19.64C18.1964 19.64 21.3004 20.328 23.9564 21.704C26.6444 23.048 28.7084 25 30.1484 27.56C31.6204 30.088 32.3564 33.048 32.3564 36.44C32.3564 39.832 31.6204 42.776 30.1484 45.272C28.7084 47.768 26.6444 49.688 23.9564 51.032C21.3004 52.344 18.1964 53 14.6444 53H3.74844V19.64H14.6444ZM14.6444 48.536C18.5484 48.536 21.5404 47.48 23.6204 45.368C25.7004 43.256 26.7404 40.28 26.7404 36.44C26.7404 32.568 25.7004 29.544 23.6204 27.368C21.5404 25.192 18.5484 24.104 14.6444 24.104H9.22044V48.536H14.6444ZM43.2517 30.392C44.0517 29.048 45.1077 28.008 46.4197 27.272C47.7637 26.504 49.3477 26.12 51.1717 26.12V31.784H49.7797C47.6357 31.784 46.0037 32.328 44.8837 33.416C43.7957 34.504 43.2517 36.392 43.2517 39.08V53H37.7797V26.552H43.2517V30.392ZM58.9856 23.048C57.9936 23.048 57.1616 22.712 56.4896 22.04C55.8176 21.368 55.4816 20.536 55.4816 19.544C55.4816 18.552 55.8176 17.72 56.4896 17.048C57.1616 16.376 57.9936 16.04 58.9856 16.04C59.9456 16.04 60.7616 16.376 61.4336 17.048C62.1056 17.72 62.4416 18.552 62.4416 19.544C62.4416 20.536 62.1056 21.368 61.4336 22.04C60.7616 22.712 59.9456 23.048 58.9856 23.048ZM61.6736 26.552V53H56.2016V26.552H61.6736ZM79.0818 48.104L86.5698 26.552H92.3778L82.2978 53H75.7698L65.7378 26.552H71.5938L79.0818 48.104ZM120.754 39.128C120.754 40.12 120.69 41.016 120.562 41.816H100.354C100.514 43.928 101.298 45.624 102.706 46.904C104.114 48.184 105.842 48.824 107.89 48.824C110.834 48.824 112.914 47.592 114.13 45.128H120.034C119.234 47.56 117.778 49.56 115.666 51.128C113.586 52.664 110.994 53.432 107.89 53.432C105.362 53.432 103.09 52.872 101.074 51.752C99.0901 50.6 97.5221 49 96.3701 46.952C95.2501 44.872 94.6901 42.472 94.6901 39.752C94.6901 37.032 95.2341 34.648 96.3221 32.6C97.4421 30.52 98.9941 28.92 100.978 27.8C102.994 26.68 105.298 26.12 107.89 26.12C110.386 26.12 112.61 26.664 114.562 27.752C116.514 28.84 118.034 30.376 119.122 32.36C120.21 34.312 120.754 36.568 120.754 39.128ZM115.042 37.4C115.01 35.384 114.29 33.768 112.882 32.552C111.474 31.336 109.73 30.728 107.65 30.728C105.762 30.728 104.146 31.336 102.802 32.552C101.458 33.736 100.658 35.352 100.402 37.4H115.042ZM157.915 20.024V53H155.755V24.536L143.083 53H141.355L128.635 24.536V53H126.475V20.024H128.779L142.219 50.168L155.659 20.024H157.915ZM164.506 39.944C164.506 37.256 165.034 34.904 166.09 32.888C167.178 30.872 168.666 29.32 170.554 28.232C172.474 27.144 174.65 26.6 177.082 26.6C179.834 26.6 182.17 27.272 184.09 28.616C186.01 29.96 187.354 31.672 188.122 33.752V26.936H190.282V53H188.122V46.136C187.354 48.248 185.994 49.992 184.042 51.368C182.122 52.712 179.802 53.384 177.082 53.384C174.65 53.384 172.474 52.84 170.554 51.752C168.666 50.632 167.178 49.064 166.09 47.048C165.034 45 164.506 42.632 164.506 39.944ZM188.122 39.944C188.122 37.672 187.642 35.672 186.682 33.944C185.754 32.184 184.474 30.84 182.842 29.912C181.21 28.952 179.386 28.472 177.37 28.472C175.258 28.472 173.402 28.936 171.802 29.864C170.202 30.76 168.954 32.072 168.058 33.8C167.162 35.528 166.714 37.576 166.714 39.944C166.714 42.312 167.162 44.36 168.058 46.088C168.954 47.816 170.202 49.144 171.802 50.072C173.434 51 175.29 51.464 177.37 51.464C179.386 51.464 181.21 51 182.842 50.072C184.506 49.112 185.802 47.768 186.73 46.04C187.658 44.28 188.122 42.248 188.122 39.944ZM201.363 28.808V46.04C201.363 47.96 201.715 49.288 202.419 50.024C203.123 50.728 204.371 51.08 206.163 51.08H209.091V53H205.827C203.555 53 201.875 52.472 200.787 51.416C199.731 50.328 199.203 48.536 199.203 46.04V28.808H195.267V26.936H199.203V20.312H201.363V26.936H209.091V28.808H201.363ZM238.26 38.216C238.26 39.368 238.228 40.232 238.164 40.808H215.652C215.716 43.144 216.228 45.112 217.188 46.712C218.148 48.312 219.412 49.512 220.98 50.312C222.548 51.112 224.26 51.512 226.116 51.512C228.676 51.512 230.82 50.888 232.548 49.64C234.276 48.36 235.364 46.632 235.812 44.456H238.068C237.556 47.112 236.244 49.272 234.132 50.936C232.02 52.568 229.348 53.384 226.116 53.384C223.684 53.384 221.508 52.84 219.588 51.752C217.668 50.664 216.164 49.112 215.076 47.096C213.988 45.048 213.444 42.664 213.444 39.944C213.444 37.224 213.972 34.856 215.028 32.84C216.116 30.824 217.62 29.288 219.54 28.232C221.46 27.144 223.652 26.6 226.116 26.6C228.612 26.6 230.772 27.144 232.596 28.232C234.452 29.288 235.86 30.712 236.82 32.504C237.78 34.264 238.26 36.168 238.26 38.216ZM236.1 39.032C236.196 36.728 235.78 34.776 234.852 33.176C233.956 31.576 232.724 30.392 231.156 29.624C229.588 28.824 227.892 28.424 226.068 28.424C224.244 28.424 222.548 28.824 220.98 29.624C219.444 30.392 218.18 31.576 217.188 33.176C216.228 34.776 215.716 36.728 215.652 39.032H236.1Z" fill="white"/>
</svg>
