<svg width="32" height="32" viewBox="0 0 32 32" fill="none" xmlns="http://www.w3.org/2000/svg">
<rect x="32" y="32" width="32" height="32" rx="8" transform="rotate(-180 32 32)" fill="#00A524" fill-opacity="0.2"/>
<path d="M9.34315 21.6568C9.34315 22.2091 9.79087 22.6568 10.3432 22.6568L19.3432 22.6568C19.8954 22.6568 20.3432 22.2091 20.3432 21.6568C20.3432 21.1046 19.8954 20.6568 19.3432 20.6568L11.3432 20.6568L11.3432 12.6568C11.3432 12.1046 10.8954 11.6568 10.3432 11.6568C9.79087 11.6568 9.34315 12.1046 9.34315 12.6568L9.34315 21.6568ZM20.9498 9.63603L9.63604 20.9497L11.0503 22.364L22.364 11.0502L20.9498 9.63603Z" fill="#00A524"/>
</svg>
