<svg width="40" height="40" viewBox="0 0 40 40" fill="none" xmlns="http://www.w3.org/2000/svg">
<rect width="40" height="40" rx="20" fill="#F3F3F3"/>
<path d="M28.4375 16.5625H11.5625C11.3139 16.5625 11.0754 16.4637 10.8996 16.2879C10.7238 16.1121 10.625 15.8736 10.625 15.625C10.625 15.3764 10.7238 15.1379 10.8996 14.9621C11.0754 14.7863 11.3139 14.6875 11.5625 14.6875H28.4375C28.6861 14.6875 28.9246 14.7863 29.1004 14.9621C29.2762 15.1379 29.375 15.3764 29.375 15.625C29.375 15.8736 29.2762 16.1121 29.1004 16.2879C28.9246 16.4637 28.6861 16.5625 28.4375 16.5625ZM25.3125 20.9375H14.6875C14.4389 20.9375 14.2004 20.8387 14.0246 20.6629C13.8488 20.4871 13.75 20.2486 13.75 20C13.75 19.7514 13.8488 19.5129 14.0246 19.3371C14.2004 19.1613 14.4389 19.0625 14.6875 19.0625H25.3125C25.5611 19.0625 25.7996 19.1613 25.9754 19.3371C26.1512 19.5129 26.25 19.7514 26.25 20C26.25 20.2486 26.1512 20.4871 25.9754 20.6629C25.7996 20.8387 25.5611 20.9375 25.3125 20.9375ZM21.5625 25.3125H18.4375C18.1889 25.3125 17.9504 25.2137 17.7746 25.0379C17.5988 24.8621 17.5 24.6236 17.5 24.375C17.5 24.1264 17.5988 23.8879 17.7746 23.7121C17.9504 23.5363 18.1889 23.4375 18.4375 23.4375H21.5625C21.8111 23.4375 22.0496 23.5363 22.2254 23.7121C22.4012 23.8879 22.5 24.1264 22.5 24.375C22.5 24.6236 22.4012 24.8621 22.2254 25.0379C22.0496 25.2137 21.8111 25.3125 21.5625 25.3125Z" fill="#6763EE" fill-opacity="0.8"/>
</svg>
