<svg width="24" height="24" viewBox="0 0 24 24" fill="none" xmlns="http://www.w3.org/2000/svg">
<path d="M18 18H17.8477C17.668 17.125 17.3516 16.3203 16.8984 15.5859C16.4453 14.8516 15.8945 14.2188 15.2461 13.6875C14.5977 13.1562 13.8672 12.7422 13.0547 12.4453C12.2422 12.1484 11.3906 12 10.5 12C9.8125 12 9.14844 12.0898 8.50781 12.2695C7.86719 12.4492 7.26953 12.6992 6.71484 13.0195C6.16016 13.3398 5.65625 13.7305 5.20312 14.1914C4.75 14.6523 4.35938 15.1602 4.03125 15.7148C3.70312 16.2695 3.44922 16.8672 3.26953 17.5078C3.08984 18.1484 3 18.8125 3 19.5H1.5C1.5 18.5625 1.63672 17.6602 1.91016 16.793C2.18359 15.9258 2.57812 15.125 3.09375 14.3906C3.60938 13.6562 4.21875 13.0039 4.92188 12.4336C5.625 11.8633 6.42188 11.4141 7.3125 11.0859C6.42969 10.5078 5.74219 9.78125 5.25 8.90625C4.75781 8.03125 4.50781 7.0625 4.5 6C4.5 5.17188 4.65625 4.39453 4.96875 3.66797C5.28125 2.94141 5.70703 2.30469 6.24609 1.75781C6.78516 1.21094 7.42188 0.78125 8.15625 0.46875C8.89062 0.15625 9.67188 0 10.5 0C11.3281 0 12.1055 0.15625 12.832 0.46875C13.5586 0.78125 14.1953 1.20703 14.7422 1.74609C15.2891 2.28516 15.7188 2.92188 16.0312 3.65625C16.3438 4.39062 16.5 5.17188 16.5 6C16.5 6.51562 16.4375 7.01953 16.3125 7.51172C16.1875 8.00391 16 8.46875 15.75 8.90625C15.5 9.34375 15.207 9.74609 14.8711 10.1133C14.5352 10.4805 14.1406 10.8047 13.6875 11.0859C14.5625 11.4219 15.3672 11.8828 16.1016 12.4688C16.8359 13.0547 17.4688 13.7422 18 14.5312V18ZM6 6C6 6.625 6.11719 7.20703 6.35156 7.74609C6.58594 8.28516 6.90625 8.76172 7.3125 9.17578C7.71875 9.58984 8.19531 9.91406 8.74219 10.1484C9.28906 10.3828 9.875 10.5 10.5 10.5C11.1172 10.5 11.6992 10.3828 12.2461 10.1484C12.793 9.91406 13.2695 9.59375 13.6758 9.1875C14.082 8.78125 14.4062 8.30469 14.6484 7.75781C14.8906 7.21094 15.0078 6.625 15 6C15 5.38281 14.8828 4.80078 14.6484 4.25391C14.4141 3.70703 14.0938 3.23047 13.6875 2.82422C13.2812 2.41797 12.8008 2.09375 12.2461 1.85156C11.6914 1.60938 11.1094 1.49219 10.5 1.5C9.875 1.5 9.29297 1.61719 8.75391 1.85156C8.21484 2.08594 7.73828 2.40625 7.32422 2.8125C6.91016 3.21875 6.58594 3.69922 6.35156 4.25391C6.11719 4.80859 6 5.39062 6 6ZM21 19.5H24V21H21V24H19.5V21H16.5V19.5H19.5V16.5H21V19.5Z" fill="#6763EE"/>
</svg>
