<svg width="26" height="26" viewBox="0 0 26 26" fill="none" xmlns="http://www.w3.org/2000/svg">
<g clip-path="url(#clip0_27_2280)">
<path d="M1.625 3.25C1.625 2.38805 1.96741 1.5614 2.5769 0.951903C3.1864 0.34241 4.01305 0 4.875 0L14.625 0C15.487 0 16.3136 0.34241 16.9231 0.951903C17.5326 1.5614 17.875 2.38805 17.875 3.25V16.25C18.737 16.25 19.5636 16.5924 20.1731 17.2019C20.7826 17.8114 21.125 18.638 21.125 19.5V20.3125C21.125 20.528 21.2106 20.7347 21.363 20.887C21.5153 21.0394 21.722 21.125 21.9375 21.125C22.153 21.125 22.3597 21.0394 22.512 20.887C22.6644 20.7347 22.75 20.528 22.75 20.3125V13H21.9375C21.722 13 21.5153 12.9144 21.363 12.762C21.2106 12.6097 21.125 12.403 21.125 12.1875V7.10938C21.125 6.89389 21.2106 6.68722 21.363 6.53485C21.5153 6.38248 21.722 6.29688 21.9375 6.29688H24.3669C24.349 5.52338 24.2808 4.84413 24.0402 4.31113C23.9115 4.00121 23.6872 3.74048 23.4 3.56687C23.101 3.38812 22.646 3.25 21.9375 3.25C21.722 3.25 21.5153 3.1644 21.363 3.01202C21.2106 2.85965 21.125 2.65299 21.125 2.4375C21.125 2.22201 21.2106 2.01535 21.363 1.86298C21.5153 1.7106 21.722 1.625 21.9375 1.625C22.854 1.62283 23.6188 1.80483 24.232 2.171C24.8544 2.5415 25.2623 3.06638 25.5223 3.64488C26.0016 4.70925 26 6.0255 26 7.0265V12.1875C26 12.403 25.9144 12.6097 25.762 12.762C25.6097 12.9144 25.403 13 25.1875 13H24.375V20.3125C24.375 20.959 24.1182 21.579 23.6611 22.0361C23.204 22.4932 22.584 22.75 21.9375 22.75C21.291 22.75 20.671 22.4932 20.2139 22.0361C19.7568 21.579 19.5 20.959 19.5 20.3125V19.5C19.5 19.069 19.3288 18.6557 19.024 18.351C18.7193 18.0462 18.306 17.875 17.875 17.875V24.375H18.6875C18.903 24.375 19.1097 24.4606 19.262 24.613C19.4144 24.7653 19.5 24.972 19.5 25.1875C19.5 25.403 19.4144 25.6097 19.262 25.762C19.1097 25.9144 18.903 26 18.6875 26H0.8125C0.597012 26 0.390349 25.9144 0.237976 25.762C0.0856024 25.6097 0 25.403 0 25.1875C0 24.972 0.0856024 24.7653 0.237976 24.613C0.390349 24.4606 0.597012 24.375 0.8125 24.375H1.625V3.25ZM5.6875 3.25C5.47201 3.25 5.26535 3.3356 5.11298 3.48798C4.9606 3.64035 4.875 3.84701 4.875 4.0625V12.1875C4.875 12.403 4.9606 12.6097 5.11298 12.762C5.26535 12.9144 5.47201 13 5.6875 13H13.8125C14.028 13 14.2347 12.9144 14.387 12.762C14.5394 12.6097 14.625 12.403 14.625 12.1875V4.0625C14.625 3.84701 14.5394 3.64035 14.387 3.48798C14.2347 3.3356 14.028 3.25 13.8125 3.25H5.6875Z" fill="#706CEF"/>
</g>
<defs>
<clipPath id="clip0_27_2280">
<rect width="26" height="26" fill="white"/>
</clipPath>
</defs>
</svg>
