<svg width="33" height="32" viewBox="0 0 33 32" fill="none" xmlns="http://www.w3.org/2000/svg">
<g clip-path="url(#clip0_1_1866)">
<path fill-rule="evenodd" clip-rule="evenodd" d="M21.5186 5.33334C22.2614 5.33337 22.9894 5.54019 23.6212 5.93064C24.2531 6.32108 24.7637 6.87973 25.096 7.54401L26.944 11.2387C27.2693 11.1053 27.5893 10.9613 27.904 10.8067C28.2204 10.6486 28.5868 10.6227 28.9223 10.7348C29.2579 10.8468 29.5352 11.0875 29.6933 11.404C29.8514 11.7205 29.8772 12.0868 29.7652 12.4224C29.6532 12.758 29.4125 13.0353 29.096 13.1933C28.7755 13.336 28.4532 13.4747 28.1293 13.6093L29.4106 16.1733C29.6887 16.7293 29.8335 17.3424 29.8333 17.964V21.3333C29.8341 21.8962 29.7157 22.4529 29.4859 22.9668C29.2561 23.4807 28.9201 23.94 28.5 24.3147V26C28.5 26.5304 28.2892 27.0391 27.9142 27.4142C27.5391 27.7893 27.0304 28 26.5 28C25.9695 28 25.4608 27.7893 25.0857 27.4142C24.7107 27.0391 24.5 26.5304 24.5 26V25.3333H8.49996V26C8.49996 26.5304 8.28925 27.0391 7.91417 27.4142C7.5391 27.7893 7.03039 28 6.49996 28C5.96953 28 5.46082 27.7893 5.08575 27.4142C4.71067 27.0391 4.49996 26.5304 4.49996 26V24.3147C3.68129 23.5813 3.16663 22.5173 3.16663 21.3333V17.9627C3.16688 17.342 3.31158 16.7298 3.58929 16.1747L4.85996 13.6307C4.53863 13.4947 4.21996 13.3507 3.90663 13.1947C3.59173 13.0346 3.35237 12.7571 3.24014 12.4221C3.1279 12.0872 3.15178 11.7215 3.30663 11.404C3.38484 11.2472 3.49318 11.1074 3.62545 10.9926C3.75772 10.8777 3.91133 10.79 4.07751 10.7345C4.24368 10.6791 4.41916 10.6569 4.59391 10.6693C4.76866 10.6816 4.93926 10.7283 5.09596 10.8067C5.41063 10.9627 5.73196 11.1053 6.05596 11.2387L7.90396 7.54534C8.23602 6.88082 8.74658 6.32189 9.37842 5.9312C10.0103 5.54051 10.7384 5.33349 11.4813 5.33334H21.5186ZM10.5 17.3333C9.96953 17.3333 9.46082 17.5441 9.08575 17.9191C8.71067 18.2942 8.49996 18.8029 8.49996 19.3333C8.49996 19.8638 8.71067 20.3725 9.08575 20.7476C9.46082 21.1226 9.96953 21.3333 10.5 21.3333C11.0304 21.3333 11.5391 21.1226 11.9142 20.7476C12.2892 20.3725 12.5 19.8638 12.5 19.3333C12.5 18.8029 12.2892 18.2942 11.9142 17.9191C11.5391 17.5441 11.0304 17.3333 10.5 17.3333ZM22.5 17.3333C21.9695 17.3333 21.4608 17.5441 21.0857 17.9191C20.7107 18.2942 20.5 18.8029 20.5 19.3333C20.5 19.8638 20.7107 20.3725 21.0857 20.7476C21.4608 21.1226 21.9695 21.3333 22.5 21.3333C23.0304 21.3333 23.5391 21.1226 23.9142 20.7476C24.2892 20.3725 24.5 19.8638 24.5 19.3333C24.5 18.8029 24.2892 18.2942 23.9142 17.9191C23.5391 17.5441 23.0304 17.3333 22.5 17.3333ZM21.5186 8.00001H11.4813C11.2618 7.99998 11.0458 8.05411 10.8522 8.15762C10.6587 8.26112 10.4938 8.41079 10.372 8.59334L10.2893 8.73734L8.59596 12.1213C10.66 12.74 13.4413 13.3333 16.5 13.3333C19.356 13.3333 21.968 12.816 23.98 12.244L24.4026 12.1213L22.7106 8.73734C22.6125 8.5411 22.4675 8.3721 22.2884 8.24534C22.1093 8.11858 21.9017 8.03798 21.684 8.01068L21.52 8.00001H21.5186Z" fill="white"/>
</g>
<defs>
<clipPath id="clip0_1_1866">
<rect width="32" height="32" fill="white" transform="translate(0.5)"/>
</clipPath>
</defs>
</svg>
