<svg width="26" height="26" viewBox="0 0 26 26" fill="none" xmlns="http://www.w3.org/2000/svg">
<path d="M12.9459 19.5001C13.325 19.5001 13.6457 19.369 13.9079 19.1068C14.17 18.8447 14.3007 18.5244 14.3 18.1459C14.3 17.7667 14.1693 17.4461 13.9079 17.1839C13.6464 16.9217 13.3257 16.791 12.9459 16.7917C12.5667 16.7917 12.2464 16.9228 11.9849 17.185C11.7235 17.4472 11.5924 17.7675 11.5917 18.1459C11.5917 18.5251 11.7228 18.8457 11.9849 19.1079C12.2471 19.3701 12.5674 19.5008 12.9459 19.5001ZM11.9709 15.3292H13.975C13.975 14.7334 14.0429 14.264 14.1787 13.9209C14.3145 13.5779 14.698 13.1084 15.3292 12.5126C15.7986 12.0431 16.1688 11.5961 16.4396 11.1714C16.7104 10.7467 16.8459 10.2369 16.8459 9.64175C16.8459 8.63064 16.4757 7.85425 15.7354 7.31258C14.9952 6.77091 14.1195 6.50008 13.1084 6.50008C12.0792 6.50008 11.2443 6.77091 10.6037 7.31258C9.96308 7.85425 9.51602 8.50425 9.26252 9.26258L11.05 9.96675C11.1403 9.64175 11.3436 9.28966 11.6599 8.9105C11.9763 8.53133 12.4591 8.34175 13.1084 8.34175C13.6861 8.34175 14.1195 8.49991 14.4084 8.81625C14.6972 9.13258 14.8417 9.47997 14.8417 9.85841C14.8417 10.2195 14.7334 10.5582 14.5167 10.8746C14.3 11.1909 14.0292 11.4841 13.7042 11.7542C12.9097 12.4584 12.4222 12.9911 12.2417 13.3522C12.0611 13.7133 11.9709 14.3723 11.9709 15.3292ZM13 23.8334C11.5014 23.8334 10.0931 23.5492 8.77502 22.9808C7.45696 22.4124 6.31044 21.6404 5.33544 20.6647C4.36044 19.6897 3.58874 18.5431 3.02035 17.2251C2.45196 15.907 2.16741 14.4987 2.16669 13.0001C2.16669 11.5015 2.45124 10.0931 3.02035 8.77508C3.58946 7.45703 4.36116 6.3105 5.33544 5.3355C6.31044 4.3605 7.45696 3.5888 8.77502 3.02041C10.0931 2.45203 11.5014 2.16747 13 2.16675C14.4986 2.16675 15.907 2.4513 17.225 3.02041C18.5431 3.58953 19.6896 4.36122 20.6646 5.3355C21.6396 6.3105 22.4117 7.45703 22.9808 8.77508C23.5499 10.0931 23.8341 11.5015 23.8334 13.0001C23.8334 14.4987 23.5488 15.907 22.9797 17.2251C22.4106 18.5431 21.6389 19.6897 20.6646 20.6647C19.6896 21.6397 18.5431 22.4117 17.225 22.9808C15.907 23.5499 14.4986 23.8341 13 23.8334Z" fill="black"/>
</svg>
