<svg width="33" height="32" viewBox="0 0 33 32" fill="none" xmlns="http://www.w3.org/2000/svg">
<path fill-rule="evenodd" clip-rule="evenodd" d="M16.4382 4.0004C16.6322 3.99411 16.9951 4.06322 17.283 4.15117C17.5583 4.23283 17.9088 4.3836 18.0652 4.48412C18.2217 4.58463 19.2667 5.30079 20.3993 6.08604C21.5257 6.8713 22.4581 7.51207 22.4769 7.51207C22.4956 7.51207 22.5144 7.12259 22.5269 6.64515C22.5395 5.88502 22.5645 5.74681 22.6959 5.4704C22.7835 5.2945 22.965 5.04322 23.1026 4.90502C23.2403 4.76681 23.4969 4.57835 23.6658 4.49668C23.9599 4.34591 24.0413 4.33963 25.0112 4.33963C25.9561 4.33963 26.0688 4.35219 26.3253 4.47783C26.4818 4.5595 26.7071 4.70399 26.826 4.79822C26.9449 4.89873 27.1451 5.16258 27.483 5.78451L27.5456 11.0552L28.7971 11.9221C29.4855 12.4058 30.1238 12.8707 30.2239 12.9649C30.3177 13.0591 30.4241 13.235 30.4617 13.3544C30.5055 13.4863 30.5117 13.6748 30.4804 13.8256C30.4554 13.9638 30.3615 14.1585 30.2739 14.259C30.1863 14.3595 30.0236 14.4789 29.9235 14.5291C29.8234 14.5857 29.6231 14.6234 29.4855 14.6234C29.3478 14.6234 29.1663 14.592 29.0787 14.5417C28.9911 14.4977 26.2628 12.6131 23.0088 10.3516C19.7548 8.09002 17.0077 6.19912 16.9075 6.14887C16.8074 6.09233 16.6072 6.05463 16.4695 6.05463C16.3318 6.05463 16.1629 6.07976 16.094 6.11745C16.0252 6.14887 15.3243 6.6263 14.5296 7.17912C13.7349 7.73195 12.0704 8.89413 10.8188 9.76106C9.57354 10.6343 7.54606 12.0477 6.31329 12.9021C5.08679 13.7627 4.01673 14.4977 3.93538 14.5354C3.86028 14.5794 3.67255 14.6108 3.51611 14.6108C3.35967 14.6108 3.15942 14.5731 3.0593 14.5229C2.96544 14.4789 2.81525 14.3532 2.71513 14.2402C2.62126 14.1334 2.5274 13.9512 2.50862 13.8444C2.48985 13.7313 2.50237 13.524 2.53991 13.3858C2.57746 13.2413 2.69636 13.0529 2.80899 12.9398C2.92163 12.833 5.67501 10.8981 8.929 8.63657C12.183 6.37502 14.9176 4.47155 15.0177 4.41501C15.1116 4.35847 15.3932 4.23912 15.6435 4.15745C15.8938 4.0695 16.2505 4.0004 16.4382 4.0004ZM24.5106 8.95695L25.5118 9.64798V6.31848H24.5106V8.95695ZM16.5696 7.83874C16.8262 7.85759 17.2329 8.11515 21.5382 10.9986C24.811 13.1848 26.3441 14.2527 26.6132 14.5166C26.8197 14.7239 27.07 15.0443 27.1639 15.2265C27.2515 15.4024 27.3704 15.7165 27.4204 15.9175C27.5018 16.219 27.5143 16.9917 27.5143 20.9557C27.5143 23.9083 27.4893 25.7615 27.4517 25.9814C27.4142 26.1698 27.3015 26.5028 27.2014 26.7226C27.095 26.9362 26.8635 27.2692 26.6883 27.4639C26.5068 27.6587 26.244 27.8848 26.1063 27.9665C25.9687 28.0482 25.6745 28.1864 25.0425 28.4314H7.95906L7.55231 28.2743C7.32704 28.1864 7.03293 28.0482 6.89526 27.9665C6.75759 27.8848 6.50102 27.665 6.32581 27.4828C6.15059 27.2943 5.93157 26.9928 5.84397 26.8169C5.7501 26.6347 5.63121 26.3206 5.58114 26.1259C5.49979 25.818 5.48728 25.0391 5.48728 21.0185C5.48728 16.998 5.49979 16.219 5.58114 15.9112C5.63121 15.7165 5.7501 15.4024 5.84397 15.2202C5.93157 15.0443 6.13808 14.7553 6.29452 14.5857C6.48851 14.3847 8.12802 13.2476 11.2694 11.1305C13.8475 9.40298 16.0315 7.94554 16.1191 7.90156C16.2067 7.85759 16.4132 7.83246 16.5696 7.83874ZM7.67747 16.062L7.52103 16.263C7.48974 24.6747 7.50851 25.6421 7.57109 25.8055C7.61489 25.9185 7.76507 26.1007 7.89649 26.2012L8.13428 26.3897L12.4959 26.4211C12.4959 22.4571 12.5147 21.986 12.596 21.6781C12.6461 21.4708 12.7837 21.1379 12.8901 20.9306C13.0028 20.7296 13.2468 20.4154 13.4345 20.2333C13.6223 20.0574 13.9289 19.8312 14.1041 19.7433C14.2856 19.649 14.5985 19.5297 14.7924 19.4794C15.0615 19.4103 15.5058 19.3852 16.5008 19.3852C17.4958 19.3852 17.9401 19.4103 18.2091 19.4794C18.4031 19.5297 18.716 19.649 18.8912 19.7433C19.0727 19.8312 19.3793 20.0574 19.5671 20.2333C19.7548 20.4154 19.9988 20.7296 20.1115 20.9306C20.2179 21.1379 20.3555 21.4708 20.4056 21.6781C20.4869 21.986 20.5057 22.4571 20.5057 24.2349V26.4211C24.7672 26.3897 24.8861 26.3834 25.0488 26.2641C25.1364 26.195 25.2741 26.0567 25.3491 25.9625C25.4806 25.7866 25.4806 25.7741 25.4806 21.0311C25.4806 16.2818 25.4806 16.2756 25.3491 16.0871C25.2678 15.974 23.4656 14.7239 20.8874 12.99C18.5095 11.3944 16.5258 10.0877 16.4883 10.0877C16.4445 10.094 14.4796 11.3944 12.1204 12.9775C9.71121 14.5983 7.76507 15.9489 7.67747 16.062ZM14.7424 21.7096C14.6798 21.7975 14.6047 21.942 14.5672 22.0362C14.5234 22.1493 14.4983 22.9785 14.4983 24.3166V26.4211H18.5032C18.472 22.099 18.4657 22.0299 18.3406 21.854C18.2655 21.7598 18.1278 21.6216 18.0402 21.5525C17.8837 21.4394 17.7586 21.4269 16.5759 21.4143C15.6372 21.4017 15.218 21.4206 15.0615 21.4771C14.9426 21.5211 14.7987 21.6279 14.7424 21.7096Z" fill="white"/>
</svg>
