<svg width="26" height="26" viewBox="0 0 26 26" fill="none" xmlns="http://www.w3.org/2000/svg">
<path d="M15.6217 8.12504L17.3333 11.9167H8.66667L10.205 8.12504H15.6217ZM9.75 13C9.15417 13 8.66667 13.4875 8.66667 14.0834C8.66667 14.6792 9.15417 15.1667 9.75 15.1667C10.3458 15.1667 10.8333 14.6792 10.8333 14.0834C10.8333 13.4875 10.3458 13 9.75 13ZM16.25 13C15.6542 13 15.1667 13.4875 15.1667 14.0834C15.1667 14.6792 15.6542 15.1667 16.25 15.1667C16.8458 15.1667 17.3333 14.6792 17.3333 14.0834C17.3333 13.4875 16.8458 13 16.25 13ZM22.75 5.41671V11.9167C22.75 17.9292 18.59 23.5517 13 24.9167C7.41 23.5517 3.25 17.9292 3.25 11.9167V5.41671L13 1.08337L22.75 5.41671ZM19.5 13L17.16 7.58337C16.9433 6.95504 16.3367 6.50004 15.6217 6.50004H10.205C9.49 6.50004 8.88333 6.95504 8.66667 7.58337L6.5 13V17.3334C6.5 17.9292 6.9875 18.4167 7.58333 18.4167H8.66667C9.2625 18.4167 9.75 17.9292 9.75 17.3334V16.25H16.25V17.3334C16.25 17.9292 16.7375 18.4167 17.3333 18.4167H18.4167C19.0125 18.4167 19.5 17.9292 19.5 17.3334V13Z" fill="#706CEF"/>
</svg>
