<svg width="24" height="25" viewBox="0 0 24 25" fill="none" xmlns="http://www.w3.org/2000/svg">
<path d="M19.875 4.25H4.125C3.42904 4.25074 2.76179 4.52755 2.26967 5.01967C1.77755 5.51179 1.50074 6.17904 1.5 6.875V18.125C1.50074 18.821 1.77755 19.4882 2.26967 19.9803C2.76179 20.4725 3.42904 20.7493 4.125 20.75H19.875C20.571 20.7493 21.2382 20.4725 21.7303 19.9803C22.2225 19.4882 22.4993 18.821 22.5 18.125V6.875C22.4993 6.17904 22.2225 5.51179 21.7303 5.01967C21.2382 4.52755 20.571 4.25074 19.875 4.25ZM19.2103 8.59203L12.4603 13.842C12.3287 13.9444 12.1667 13.9999 12 13.9999C11.8333 13.9999 11.6713 13.9444 11.5397 13.842L4.78969 8.59203C4.71038 8.53214 4.64377 8.45709 4.59372 8.37123C4.54367 8.28537 4.51118 8.19042 4.49815 8.0919C4.48511 7.99338 4.49179 7.89325 4.51778 7.79733C4.54378 7.70142 4.58858 7.61162 4.64958 7.53316C4.71058 7.45471 4.78656 7.38916 4.87312 7.34032C4.95967 7.29149 5.05506 7.26034 5.15376 7.24869C5.25245 7.23704 5.35248 7.24513 5.44802 7.27247C5.54357 7.29981 5.63272 7.34587 5.71031 7.40797L12 12.2998L18.2897 7.40797C18.447 7.2892 18.6447 7.23711 18.84 7.26296C19.0354 7.28881 19.2128 7.39053 19.3338 7.54612C19.4547 7.70171 19.5096 7.89866 19.4865 8.09439C19.4634 8.29011 19.3642 8.46888 19.2103 8.59203Z" fill="white"/>
</svg>
