<svg width="20" height="20" viewBox="0 0 20 20" fill="none" xmlns="http://www.w3.org/2000/svg">
<g clip-path="url(#clip0_22_813)">
<path d="M16.6667 14.5833C16.9877 14.5835 17.2964 14.7071 17.5287 14.9287C17.761 15.1502 17.8992 15.4526 17.9146 15.7733C17.9301 16.0939 17.8215 16.4082 17.6116 16.651C17.4016 16.8938 17.1062 17.0465 16.7867 17.0775L16.6667 17.0833H3.33337C3.01236 17.0832 2.70371 16.9595 2.47139 16.738C2.23906 16.5165 2.10086 16.214 2.08544 15.8934C2.07001 15.5728 2.17853 15.2585 2.38852 15.0157C2.59851 14.7728 2.89386 14.6201 3.21337 14.5892L3.33337 14.5833H16.6667ZM16.6667 8.74999C16.9982 8.74999 17.3162 8.88169 17.5506 9.11611C17.785 9.35053 17.9167 9.66847 17.9167 9.99999C17.9167 10.3315 17.785 10.6495 17.5506 10.8839C17.3162 11.1183 16.9982 11.25 16.6667 11.25H3.33337C3.00185 11.25 2.68391 11.1183 2.44949 10.8839C2.21507 10.6495 2.08337 10.3315 2.08337 9.99999C2.08337 9.66847 2.21507 9.35053 2.44949 9.11611C2.68391 8.88169 3.00185 8.74999 3.33337 8.74999H16.6667ZM16.6667 2.91666C16.9982 2.91666 17.3162 3.04835 17.5506 3.28277C17.785 3.51719 17.9167 3.83514 17.9167 4.16666C17.9167 4.49818 17.785 4.81612 17.5506 5.05054C17.3162 5.28496 16.9982 5.41666 16.6667 5.41666H3.33337C3.00185 5.41666 2.68391 5.28496 2.44949 5.05054C2.21507 4.81612 2.08337 4.49818 2.08337 4.16666C2.08337 3.83514 2.21507 3.51719 2.44949 3.28277C2.68391 3.04835 3.00185 2.91666 3.33337 2.91666H16.6667Z" fill="black"/>
</g>
<defs>
<clipPath id="clip0_22_813">
<rect width="20" height="20" fill="white"/>
</clipPath>
</defs>
</svg>
