<svg width="24" height="25" viewBox="0 0 24 25" fill="none" xmlns="http://www.w3.org/2000/svg">
<path d="M21.6632 8.43127C21.1374 7.17625 20.3724 6.03553 19.4109 5.07268C18.4523 4.10815 17.3135 3.34129 16.0593 2.81565C14.7745 2.27455 13.3941 1.99718 12 2.00002H11.9531C10.5351 2.00705 9.16403 2.2883 7.87262 2.84143C6.62919 3.37246 5.50114 4.14068 4.55153 5.10315C3.59933 6.06384 2.8431 7.20057 2.32496 8.45002C1.78711 9.74931 1.51457 11.1431 1.5234 12.5492C1.53043 14.1758 1.91949 15.7906 2.64606 17.2344V20.7969C2.64606 21.3922 3.12887 21.875 3.72184 21.875H7.27965C8.73014 22.6069 10.3308 22.9921 11.9554 23H12.0047C13.4062 23 14.7632 22.7281 16.0429 22.1961C17.2908 21.6767 18.4253 20.9188 19.3828 19.9649C20.3484 19.0063 21.1078 17.886 21.6398 16.6367C22.1906 15.343 22.4718 13.9672 22.4789 12.5469C22.4836 11.1196 22.207 9.7344 21.6632 8.43127ZM7.32184 13.625C6.70309 13.625 6.19918 13.1211 6.19918 12.5C6.19918 11.8789 6.70309 11.375 7.32184 11.375C7.94059 11.375 8.44449 11.8789 8.44449 12.5C8.44449 13.1211 7.94293 13.625 7.32184 13.625ZM12 13.625C11.3812 13.625 10.8773 13.1211 10.8773 12.5C10.8773 11.8789 11.3812 11.375 12 11.375C12.6187 11.375 13.1226 11.8789 13.1226 12.5C13.1226 13.1211 12.6187 13.625 12 13.625ZM16.6781 13.625C16.0593 13.625 15.5554 13.1211 15.5554 12.5C15.5554 11.8789 16.0593 11.375 16.6781 11.375C17.2968 11.375 17.8007 11.8789 17.8007 12.5C17.8007 13.1211 17.2968 13.625 16.6781 13.625Z" fill="white"/>
</svg>
