<svg width="28" height="28" viewBox="0 0 28 28" fill="none" xmlns="http://www.w3.org/2000/svg">
<path d="M19.2892 14.9745L18.7805 15.4875C18.7805 15.4875 17.5696 16.7059 14.2658 13.379C10.9619 10.0521 12.1728 8.83372 12.1728 8.83372L12.4926 8.50986C13.283 7.71494 13.3579 6.43764 12.6681 5.50457L11.2593 3.59881C10.4052 2.4438 8.75604 2.29093 7.77775 3.27609L6.02241 5.04257C5.5383 5.53175 5.21406 6.16361 5.25319 6.86567C5.35382 8.66273 6.15658 12.5275 10.6332 17.0366C15.3816 21.8174 19.837 22.0076 21.6583 21.8355C22.2352 21.7811 22.7361 21.4845 23.1397 21.0768L24.7274 19.4779C25.8007 18.3988 25.4988 16.5474 24.1258 15.7921L21.9904 14.6156C21.0892 14.1196 19.9935 14.2657 19.2892 14.9745Z" fill="#1D1D1D"/>
</svg>
