<svg width="28" height="28" viewBox="0 0 28 28" fill="none" xmlns="http://www.w3.org/2000/svg">
<path d="M8.54966 3.93381C8.6939 3.77391 8.76488 3.56786 8.74739 3.35989C8.7299 3.15192 8.62532 2.95861 8.4561 2.82147C8.28689 2.68432 8.06652 2.61426 7.84232 2.62634C7.61812 2.63841 7.40795 2.73166 7.25694 2.88606L5.77888 4.45874C4.94076 5.35089 4.46698 6.48832 4.44039 7.67212L4.37518 10.5614C4.37048 10.7728 4.45637 10.9772 4.61395 11.1298C4.77153 11.2823 4.9879 11.3705 5.21546 11.3748C5.44301 11.3792 5.66312 11.2994 5.82735 11.153C5.99158 11.0067 6.08649 10.8057 6.09119 10.5943L6.15526 7.70612C6.17361 6.89611 6.49797 6.11788 7.07161 5.50755L8.54966 3.93381Z" fill="#1D1D1D"/>
<path fill-rule="evenodd" clip-rule="evenodd" d="M8.01343 9.56076C8.08319 8.42318 8.57385 7.35558 9.38552 6.57529C10.1972 5.795 11.2689 5.36068 12.3824 5.36076H12.9609V4.56329C12.9609 4.28129 13.0704 4.01084 13.2652 3.81143C13.46 3.61202 13.7242 3.5 13.9997 3.5C14.2752 3.5 14.5394 3.61202 14.7342 3.81143C14.929 4.01084 15.0384 4.28129 15.0384 4.56329V5.36076H15.617C16.7305 5.36068 17.8021 5.795 18.6138 6.57529C19.4255 7.35558 19.9161 8.42318 19.9859 9.56076L20.2155 13.3184C20.3029 14.7512 20.7729 16.1319 21.5741 17.31C21.7397 17.5536 21.8408 17.8369 21.8677 18.1323C21.8947 18.4277 21.8464 18.7252 21.7277 18.9959C21.6091 19.2666 21.424 19.5013 21.1905 19.6771C20.9569 19.8529 20.683 19.9638 20.3952 19.9991L16.8562 20.4329V21.576C16.8562 22.3515 16.5552 23.0952 16.0195 23.6436C15.4838 24.1919 14.7573 24.5 13.9997 24.5C13.2421 24.5 12.5155 24.1919 11.9798 23.6436C11.4441 23.0952 11.1431 22.3515 11.1431 21.576V20.4329L7.60417 19.998C7.31653 19.9626 7.04274 19.8517 6.80937 19.676C6.57601 19.5002 6.39101 19.2657 6.27235 18.9952C6.15369 18.7247 6.10541 18.4273 6.13219 18.132C6.15898 17.8367 6.25991 17.5536 6.4252 17.31C7.22638 16.1318 7.69633 14.7512 7.78387 13.3184L8.01343 9.56182V9.56076ZM12.7012 21.576C12.7012 21.9285 12.838 22.2665 13.0815 22.5158C13.325 22.765 13.6553 22.9051 13.9997 22.9051C14.344 22.9051 14.6743 22.765 14.9178 22.5158C15.1613 22.2665 15.2981 21.9285 15.2981 21.576V20.7785H12.7012V21.576Z" fill="#1D1D1D"/>
<path d="M19.543 2.82112C19.3721 2.95991 19.2674 3.15617 19.252 3.36674C19.2366 3.5773 19.3117 3.78494 19.4609 3.944L20.9352 5.51475C21.5072 6.12476 21.8304 6.90243 21.8481 7.71168L21.9131 10.5953C21.9155 10.6998 21.9399 10.8029 21.9851 10.8986C22.0302 10.9944 22.0952 11.0809 22.1763 11.1533C22.2574 11.2257 22.3531 11.2825 22.4578 11.3205C22.5625 11.3585 22.6743 11.377 22.7867 11.3748C22.8991 11.3727 23.0099 11.3499 23.1128 11.3079C23.2158 11.2659 23.3088 11.2055 23.3867 11.1301C23.4645 11.0546 23.5256 10.9657 23.5664 10.8683C23.6073 10.7709 23.6271 10.6669 23.6248 10.5624L23.5598 7.67772C23.5333 6.49538 23.0607 5.35934 22.2247 4.46829L20.7503 2.89754C20.6011 2.73854 20.3901 2.64117 20.1637 2.62684C19.9373 2.61251 19.714 2.68239 19.543 2.82112Z" fill="#1D1D1D"/>
</svg>
