<svg width="33" height="33" viewBox="0 0 33 33" fill="none" xmlns="http://www.w3.org/2000/svg">
<g clip-path="url(#clip0_50_2691)">
<path d="M2.0625 4.125C2.0625 3.03098 2.4971 1.98177 3.27068 1.20818C4.04427 0.434597 5.09348 0 6.1875 0L18.5625 0C19.6565 0 20.7057 0.434597 21.4793 1.20818C22.2529 1.98177 22.6875 3.03098 22.6875 4.125V20.625C23.7815 20.625 24.8307 21.0596 25.6043 21.8332C26.3779 22.6068 26.8125 23.656 26.8125 24.75V25.7812C26.8125 26.0548 26.9211 26.3171 27.1145 26.5105C27.3079 26.7039 27.5702 26.8125 27.8438 26.8125C28.1173 26.8125 28.3796 26.7039 28.573 26.5105C28.7664 26.3171 28.875 26.0548 28.875 25.7812V16.5H27.8438C27.5702 16.5 27.3079 16.3913 27.1145 16.198C26.9211 16.0046 26.8125 15.7423 26.8125 15.4688V9.02344C26.8125 8.74993 26.9211 8.48763 27.1145 8.29423C27.3079 8.10084 27.5702 7.99219 27.8438 7.99219H30.9272C30.9045 7.01044 30.8179 6.14831 30.5126 5.47181C30.3492 5.07846 30.0645 4.74753 29.7 4.52719C29.3205 4.30031 28.743 4.125 27.8438 4.125C27.5702 4.125 27.3079 4.01635 27.1145 3.82295C26.9211 3.62956 26.8125 3.36725 26.8125 3.09375C26.8125 2.82025 26.9211 2.55794 27.1145 2.36455C27.3079 2.17115 27.5702 2.0625 27.8438 2.0625C29.007 2.05975 29.9777 2.29075 30.756 2.7555C31.5459 3.22575 32.0636 3.89194 32.3936 4.62619C33.0021 5.97713 33 7.64775 33 8.91825V15.4688C33 15.7423 32.8913 16.0046 32.698 16.198C32.5046 16.3913 32.2423 16.5 31.9688 16.5H30.9375V25.7812C30.9375 26.6018 30.6116 27.3887 30.0314 27.9689C29.4512 28.5491 28.6643 28.875 27.8438 28.875C27.0232 28.875 26.2363 28.5491 25.6561 27.9689C25.0759 27.3887 24.75 26.6018 24.75 25.7812V24.75C24.75 24.203 24.5327 23.6784 24.1459 23.2916C23.7591 22.9048 23.2345 22.6875 22.6875 22.6875V30.9375H23.7188C23.9923 30.9375 24.2546 31.0461 24.448 31.2395C24.6414 31.4329 24.75 31.6952 24.75 31.9688C24.75 32.2423 24.6414 32.5046 24.448 32.698C24.2546 32.8913 23.9923 33 23.7188 33H1.03125C0.757746 33 0.495443 32.8913 0.302046 32.698C0.108649 32.5046 0 32.2423 0 31.9688C0 31.6952 0.108649 31.4329 0.302046 31.2395C0.495443 31.0461 0.757746 30.9375 1.03125 30.9375H2.0625V4.125ZM7.21875 4.125C6.94525 4.125 6.68294 4.23365 6.48955 4.42705C6.29615 4.62044 6.1875 4.88275 6.1875 5.15625V15.4688C6.1875 15.7423 6.29615 16.0046 6.48955 16.198C6.68294 16.3913 6.94525 16.5 7.21875 16.5H17.5312C17.8048 16.5 18.0671 16.3913 18.2605 16.198C18.4539 16.0046 18.5625 15.7423 18.5625 15.4688V5.15625C18.5625 4.88275 18.4539 4.62044 18.2605 4.42705C18.0671 4.23365 17.8048 4.125 17.5312 4.125H7.21875Z" fill="#706CEF"/>
</g>
<defs>
<clipPath id="clip0_50_2691">
<rect width="33" height="33" fill="white"/>
</clipPath>
</defs>
</svg>
