<svg width="30" height="30" viewBox="0 0 30 30" fill="none" xmlns="http://www.w3.org/2000/svg">
<path fill-rule="evenodd" clip-rule="evenodd" d="M19.4319 11.6762C19.4319 12.8516 18.9649 13.9788 18.1338 14.81C17.3027 15.6411 16.1754 16.108 15 16.108C13.8247 16.108 12.6974 15.6411 11.8663 14.81C11.0352 13.9788 10.5682 12.8516 10.5682 11.6762C10.5682 10.5008 11.0352 9.37356 11.8663 8.54243C12.6974 7.71131 13.8247 7.24438 15 7.24438C16.1754 7.24438 17.3027 7.71131 18.1338 8.54243C18.9649 9.37356 19.4319 10.5008 19.4319 11.6762ZM17.216 11.6762C17.216 12.2639 16.9825 12.8275 16.5669 13.2431C16.1514 13.6586 15.5877 13.8921 15 13.8921C14.4124 13.8921 13.8487 13.6586 13.4332 13.2431C13.0176 12.8275 12.7841 12.2639 12.7841 11.6762C12.7841 11.0885 13.0176 10.5249 13.4332 10.1093C13.8487 9.69375 14.4124 9.46029 15 9.46029C15.5877 9.46029 16.1514 9.69375 16.5669 10.1093C16.9825 10.5249 17.216 11.0885 17.216 11.6762Z" fill="#1D1D1D"/>
<path fill-rule="evenodd" clip-rule="evenodd" d="M15 2.8125C8.26923 2.8125 2.81256 8.26917 2.81256 15C2.81256 21.7308 8.26923 27.1875 15 27.1875C21.7309 27.1875 27.1875 21.7308 27.1875 15C27.1875 8.26917 21.7309 2.8125 15 2.8125ZM5.02847 15C5.02847 17.3156 5.81844 19.4473 7.14244 21.1403C8.07227 19.9192 9.27182 18.9296 10.6474 18.2488C12.0229 17.5681 13.5373 17.2146 15.0721 17.2159C16.587 17.2144 18.0823 17.5588 19.444 18.2228C20.8057 18.8867 21.9978 19.8527 22.9297 21.0472C23.8896 19.7881 24.536 18.3185 24.8153 16.7601C25.0945 15.2016 24.9987 13.599 24.5356 12.0849C24.0726 10.5709 23.2556 9.18882 22.1524 8.05316C21.0492 6.91749 19.6914 6.06086 18.1914 5.55414C16.6913 5.04742 15.0922 4.90517 13.5263 5.13917C11.9604 5.37317 10.4727 5.97669 9.18636 6.8998C7.9 7.8229 6.85195 9.03905 6.12892 10.4476C5.40589 11.8562 5.02867 13.4167 5.02847 15ZM15 24.9716C12.711 24.975 10.491 24.1875 8.71573 22.7424C9.43029 21.7194 10.3814 20.8842 11.488 20.3078C12.5947 19.7314 13.8243 19.4309 15.0721 19.4318C16.3043 19.4308 17.519 19.7238 18.6152 20.2865C19.7115 20.8492 20.6577 21.6653 21.3752 22.667C19.5862 24.1591 17.3296 24.9748 15 24.9716Z" fill="#1D1D1D"/>
</svg>
