<svg width="33" height="32" viewBox="0 0 33 32" fill="none" xmlns="http://www.w3.org/2000/svg">
<path d="M16.5 2.66663C9.13596 2.66663 3.16663 8.63596 3.16663 16C3.16663 23.364 9.13596 29.3333 16.5 29.3333C23.864 29.3333 29.8333 23.364 29.8333 16C29.8333 8.63596 23.864 2.66663 16.5 2.66663Z" stroke="white" stroke-width="2" stroke-linecap="round" stroke-linejoin="round"/>
<path d="M6.19458 24.4613C6.19458 24.4613 9.16658 20.6667 16.4999 20.6667C23.8332 20.6667 26.8066 24.4613 26.8066 24.4613M16.4999 16C17.5608 16 18.5782 15.5786 19.3283 14.8284C20.0785 14.0783 20.4999 13.0609 20.4999 12C20.4999 10.9391 20.0785 9.92172 19.3283 9.17157C18.5782 8.42143 17.5608 8 16.4999 8C15.439 8 14.4216 8.42143 13.6715 9.17157C12.9213 9.92172 12.4999 10.9391 12.4999 12C12.4999 13.0609 12.9213 14.0783 13.6715 14.8284C14.4216 15.5786 15.439 16 16.4999 16Z" stroke="white" stroke-width="2" stroke-linecap="round" stroke-linejoin="round"/>
</svg>
