<svg width="225" height="225" viewBox="0 0 225 225" fill="none" xmlns="http://www.w3.org/2000/svg">
<path d="M0 197.845V170.69H54.3103V225H0V197.845ZM46.5517 197.845V178.448H7.75862V217.241H46.5517V197.845ZM15.5172 197.845V186.207H38.7931V209.483H15.5172V197.845ZM69.8276 221.121V217.241H62.069V201.724H69.8276V178.448H77.5862V170.69H62.069V162.931H31.0345V155.172H38.7931V147.414H23.2759V162.931H15.5172V155.172H0V147.414H15.5172V131.897H7.75862V139.655H0V124.138H15.5172V131.897H23.2759V139.655H31.0345V131.897H38.7931V139.655H54.3103V131.897H46.5517V124.138H23.2759V116.379H46.5517V108.621H23.2759V100.862H15.5172V108.621H0V85.3448H7.75862V93.1035H54.3103V85.3448H46.5517V77.5862H31.0345V85.3448H23.2759V77.5862H7.75862V62.069H23.2759V77.5862H31.0345V69.8276H46.5517V62.069H54.3103V69.8276H46.5517V77.5862H54.3103V85.3448H62.069V69.8276H69.8276V62.069H62.069V38.7931H77.5862V46.5517H85.3448V54.3103H77.5862V62.069H85.3448V108.621H69.8276V100.862H62.069V108.621H54.3103V116.379H46.5517V124.138H54.3103V131.897H62.069V139.655H77.5862V131.897H69.8276V124.138H62.069V116.379H77.5862V131.897H85.3448V116.379H93.1035V131.897H100.862V108.621H108.621V100.862H116.379V108.621H108.621V116.379H116.379V124.138H139.655V116.379H131.897V108.621H124.138V93.1035H116.379V85.3448H124.138V77.5862H131.897V69.8276H124.138V62.069H116.379V77.5862H108.621V69.8276H100.862V77.5862H93.1035V69.8276H100.862V62.069H93.1035V38.7931H85.3448V31.0345H93.1035V38.7931H100.862V7.75862H108.621V23.2759H124.138V15.5172H116.379V0H131.897V7.75862H124.138V15.5172H139.655V7.75862H147.414V0H162.931V23.2759H147.414V15.5172H139.655V31.0345H147.414V54.3103H155.172V46.5517H162.931V85.3448H178.448V77.5862H170.69V62.069H186.207V85.3448H201.724V77.5862H193.966V62.069H201.724V77.5862H209.483V69.8276H225V85.3448H217.241V77.5862H209.483V85.3448H201.724V108.621H209.483V116.379H201.724V124.138H186.207V131.897H178.448V139.655H162.931V131.897H155.172V124.138H147.414V139.655H155.172V147.414H178.448V155.172H193.966V147.414H186.207V139.655H193.966V131.897H201.724V139.655H209.483V147.414H217.241V131.897H209.483V124.138H225V147.414H217.241V162.931H225V178.448H217.241V201.724H225V209.483H201.724V225H178.448V217.241H193.966V209.483H178.448V193.966H170.69V209.483H162.931V217.241H170.69V225H155.172V201.724H147.414V217.241H139.655V209.483H131.897V178.448H139.655V201.724H147.414V178.448H155.172V162.931H147.414V155.172H139.655V147.414H147.414V139.655H139.655V131.897H131.897V162.931H139.655V170.69H124.138V186.207H116.379V201.724H124.138V209.483H116.379V217.241H131.897V225H116.379V217.241H108.621V209.483H100.862V225H69.8276V221.121ZM93.1035 209.483V201.724H100.862V178.448H85.3448V186.207H93.1035V193.966H77.5862V201.724H69.8276V209.483H77.5862V217.241H93.1035V209.483ZM201.724 201.724V193.966H209.483V178.448H217.241V170.69H209.483V147.414H201.724V170.69H209.483V178.448H201.724V186.207H193.966V209.483H201.724V201.724ZM162.931 197.845V193.966H155.172V201.724H162.931V197.845ZM116.379 182.328V178.448H108.621V186.207H116.379V182.328ZM186.207 174.569V162.931H162.931V186.207H186.207V174.569ZM170.69 174.569V170.69H178.448V178.448H170.69V174.569ZM108.621 166.81V162.931H124.138V155.172H108.621V147.414H100.862V155.172H108.621V162.931H93.1035V155.172H85.3448V162.931H77.5862V155.172H69.8276V147.414H62.069V139.655H54.3103V147.414H46.5517V155.172H54.3103V147.414H62.069V155.172H69.8276V162.931H77.5862V170.69H108.621V166.81ZM85.3448 143.534V139.655H77.5862V147.414H85.3448V143.534ZM124.138 139.655V131.897H108.621V139.655H116.379V147.414H124.138V139.655ZM170.69 128.017V124.138H162.931V131.897H170.69V128.017ZM186.207 120.259V116.379H193.966V93.1035H186.207V100.862H178.448V108.621H170.69V100.862H155.172V93.1035H147.414V85.3448H155.172V62.069H147.414V54.3103H139.655V46.5517H131.897V54.3103H124.138V31.0345H131.897V38.7931H139.655V31.0345H131.897V23.2759H124.138V31.0345H116.379V54.3103H124.138V62.069H131.897V54.3103H139.655V77.5862H131.897V85.3448H124.138V93.1035H131.897V108.621H139.655V100.862H155.172V108.621H162.931V116.379H178.448V124.138H186.207V120.259ZM178.448 112.5V108.621H186.207V116.379H178.448V112.5ZM54.3103 104.741V100.862H62.069V93.1035H54.3103V100.862H46.5517V108.621H54.3103V104.741ZM77.5862 89.2241V85.3448H69.8276V93.1035H77.5862V89.2241ZM77.5862 50.431V46.5517H69.8276V54.3103H77.5862V50.431ZM108.621 46.5517V38.7931H100.862V54.3103H108.621V46.5517ZM155.172 11.6379V7.75862H147.414V15.5172H155.172V11.6379ZM217.241 221.121V217.241H225V225H217.241V221.121ZM217.241 108.621V100.862H209.483V93.1035H217.241V100.862H225V116.379H217.241V108.621ZM0 27.1552V0H54.3103V54.3103H0V27.1552ZM46.5517 27.1552V7.75862H7.75862V46.5517H46.5517V27.1552ZM15.5172 27.1552V15.5172H38.7931V38.7931H15.5172V27.1552ZM170.69 27.1552V0H225V54.3103H170.69V27.1552ZM217.241 27.1552V7.75862H178.448V46.5517H217.241V27.1552ZM186.207 27.1552V15.5172H209.483V38.7931H186.207V27.1552ZM62.069 27.1552V23.2759H69.8276V31.0345H62.069V27.1552ZM77.5862 19.3966V15.5172H69.8276V0H77.5862V7.75862H85.3448V0H93.1035V7.75862H85.3448V23.2759H77.5862V19.3966Z" fill="black"/>
</svg>
