<svg width="22" height="22" viewBox="0 0 22 22" fill="none" xmlns="http://www.w3.org/2000/svg">
<g clip-path="url(#clip0_22_819)">
<path d="M14.4384 16.0237C12.6405 17.4211 10.3779 18.0803 8.11127 17.8671C5.84465 17.654 3.74444 16.5845 2.23828 14.8765C0.732121 13.1684 -0.0667356 10.9502 0.00436998 8.67358C0.0754755 6.39692 1.0112 4.23297 2.62101 2.62234C4.23081 1.01171 6.39366 0.0755139 8.66917 0.0043722C10.9447 -0.0667695 13.1617 0.732493 14.8689 2.23942C16.5761 3.74634 17.645 5.84762 17.8581 8.1154C18.0711 10.3832 17.4122 12.6469 16.0156 14.4457L22 20.4108L20.4116 22L14.4496 16.0237H14.4384ZM8.95733 15.6656C9.8387 15.6656 10.7114 15.4919 11.5257 15.1545C12.34 14.817 13.0799 14.3224 13.7031 13.6989C14.3263 13.0753 14.8207 12.3351 15.1579 11.5204C15.4952 10.7057 15.6688 9.83251 15.6688 8.9507C15.6688 8.06888 15.4952 7.1957 15.1579 6.38101C14.8207 5.56632 14.3263 4.82608 13.7031 4.20254C13.0799 3.579 12.34 3.08439 11.5257 2.74693C10.7114 2.40948 9.8387 2.23579 8.95733 2.23579C7.17733 2.23579 5.47024 2.94325 4.21159 4.20254C2.95294 5.46183 2.24584 7.16979 2.24584 8.9507C2.24584 10.7316 2.95294 12.4396 4.21159 13.6989C5.47024 14.9581 7.17733 15.6656 8.95733 15.6656Z" fill="black"/>
</g>
<defs>
<clipPath id="clip0_22_819">
<rect width="22" height="22" fill="white"/>
</clipPath>
</defs>
</svg>
