<svg width="20" height="20" viewBox="0 0 20 20" fill="none" xmlns="http://www.w3.org/2000/svg">
<g clip-path="url(#clip0_369_22)">
<path d="M12.8999 14.32C11.2927 15.5686 9.26991 16.1576 7.24357 15.9672C5.21724 15.7767 3.33967 14.8211 1.99318 13.2949C0.646696 11.7687 -0.0674734 9.78667 -0.00390579 7.7524C0.0596618 5.71812 0.896186 3.78456 2.33534 2.34541C3.77449 0.906257 5.70805 0.0697326 7.74233 0.00616501C9.7766 -0.0574026 11.7586 0.656766 13.2848 2.00326C14.811 3.34974 15.7666 5.22731 15.9571 7.25364C16.1475 9.27998 15.5585 11.3027 14.3099 12.91L19.6599 18.24L18.2399 19.66L12.9099 14.32H12.8999ZM7.99994 14C8.78787 14 9.56809 13.8448 10.296 13.5433C11.024 13.2418 11.6854 12.7998 12.2426 12.2427C12.7997 11.6855 13.2417 11.0241 13.5432 10.2961C13.8447 9.56816 13.9999 8.78794 13.9999 8.00001C13.9999 7.21208 13.8447 6.43187 13.5432 5.70391C13.2417 4.97596 12.7997 4.31452 12.2426 3.75737C11.6854 3.20022 11.024 2.75826 10.296 2.45674C9.56809 2.15521 8.78787 2.00001 7.99994 2.00001C6.40864 2.00001 4.88252 2.63215 3.7573 3.75737C2.63208 4.88259 1.99994 6.40871 1.99994 8.00001C1.99994 9.59131 2.63208 11.1174 3.7573 12.2427C4.88252 13.3679 6.40864 14 7.99994 14Z" fill="black"/>
</g>
<defs>
<clipPath id="clip0_369_22">
<rect width="20" height="20" fill="white"/>
</clipPath>
</defs>
</svg>
