<svg width="24" height="25" viewBox="0 0 24 25" fill="none" xmlns="http://www.w3.org/2000/svg">
<path d="M3.4 20.8999L20.85 13.4199C21.0304 13.3431 21.1842 13.2149 21.2923 13.0513C21.4004 12.8877 21.4581 12.696 21.4581 12.4999C21.4581 12.3038 21.4004 12.1121 21.2923 11.9485C21.1842 11.7849 21.0304 11.6567 20.85 11.5799L3.4 4.0999C3.2489 4.034 3.08377 4.00675 2.91951 4.02061C2.75525 4.03447 2.59702 4.089 2.4591 4.1793C2.32118 4.26959 2.20791 4.3928 2.1295 4.5378C2.0511 4.68281 2.01003 4.84506 2.01 5.0099L2 9.6199C2 10.1199 2.37 10.5499 2.87 10.6099L17 12.4999L2.87 14.3799C2.37 14.4499 2 14.8799 2 15.3799L2.01 19.9899C2.01 20.6999 2.74 21.1899 3.4 20.8999Z" fill="white"/>
</svg>
