<svg width="430" height="287" viewBox="0 0 430 287" fill="none" xmlns="http://www.w3.org/2000/svg">
<g opacity="0.3">
<mask id="mask0_240_204" style="mask-type:luminance" maskUnits="userSpaceOnUse" x="0" y="0" width="430" height="287">
<path d="M430 0H0V286.667H430V0Z" fill="white"/>
</mask>
<g mask="url(#mask0_240_204)">
<path d="M-88.6421 289.149L-73.2825 273.789H-0.17101C-0.125144 273.973 -0.0448725 274.151 0.0755275 274.288H-73.0761L-88.4357 289.648H-139.904V289.149H-88.6421Z" fill="#BABABA"/>
<path d="M23.6508 186.792C23.6508 211.99 44.0786 232.412 69.2709 232.412C94.4632 232.412 114.891 211.984 114.891 186.792C114.891 161.6 94.4632 141.172 69.2709 141.172C44.0786 141.172 23.6508 161.6 23.6508 186.792Z" fill="url(#paint0_radial_240_204)"/>
<path d="M51.8359 186.792C51.8359 196.424 59.6447 204.227 69.271 204.227C78.8973 204.227 86.7061 196.418 86.7061 186.792C86.7061 177.166 78.8973 169.357 69.271 169.357C59.6447 169.357 51.8359 177.166 51.8359 186.792Z" fill="url(#paint1_radial_240_204)"/>
<path d="M43.3621 196.785L36.9235 201.968L39.9565 207.22L47.6678 204.233C48.9062 205.764 50.2994 207.163 51.8302 208.395L48.8431 216.107L54.0949 219.139L59.2778 212.701C61.0895 213.4 62.993 213.922 64.971 214.232L66.2381 222.396H72.3039L73.571 214.232C75.549 213.922 77.4525 213.406 79.2642 212.701L84.4471 219.139L89.6989 216.107L86.7118 208.395C88.2426 207.157 89.6415 205.764 90.8742 204.233L98.5855 207.22L101.618 201.968L95.1799 196.785C95.8794 194.968 96.4011 193.064 96.7107 191.092L104.875 189.825V183.759L96.7107 182.492C96.4011 180.52 95.8851 178.616 95.1799 176.799L101.618 171.616L98.5855 166.364L90.8742 169.351C89.6358 167.82 88.2426 166.427 86.7118 165.189L89.6989 157.477L84.4471 154.445L79.2642 160.883C77.4525 160.184 75.549 159.662 73.571 159.358L72.3039 151.188H66.2381L64.971 159.358C62.993 159.668 61.0953 160.184 59.2778 160.883L54.0949 154.445L48.8431 157.477L51.8302 165.189C50.2994 166.427 48.9005 167.82 47.6678 169.351L39.9565 166.364L36.9235 171.616L43.3621 176.799C42.6626 178.611 42.1409 180.514 41.837 182.492L33.6727 183.759V189.825L41.837 191.092C42.1466 193.064 42.6626 194.968 43.3621 196.785ZM52.0309 186.792C52.0309 177.269 59.7479 169.552 69.271 169.552C78.7941 169.552 86.5111 177.269 86.5111 186.792C86.5111 196.315 78.7941 204.032 69.271 204.032C59.7479 204.032 52.0309 196.315 52.0309 186.792Z" fill="#E0E0E0"/>
<path d="M16.2435 207.243L3.06252 217.849L9.27172 228.599L25.0556 222.482C27.5897 225.612 30.4449 228.473 33.5811 231.007L27.4636 246.797L38.2136 253L48.8203 239.82C52.5297 241.253 56.4284 242.319 60.4704 242.95L63.0619 259.663H75.4745L78.066 242.95C82.108 242.319 86.0067 241.259 89.7161 239.82L100.323 253L111.073 246.797L104.955 231.007C108.091 228.473 110.947 225.618 113.481 222.482L129.265 228.599L135.468 217.849L122.287 207.243C123.721 203.528 124.787 199.635 125.412 195.593L142.13 193.001V180.588L125.412 177.997C124.787 173.955 123.721 170.056 122.287 166.347L135.468 155.74L129.259 144.99L113.475 151.108C110.941 147.977 108.086 145.116 104.95 142.582L111.067 126.798L100.317 120.589L89.7104 133.776C85.9952 132.342 82.1023 131.276 78.0603 130.651L75.4688 113.938H63.0561L60.4647 130.651C56.4227 131.276 52.5297 132.342 48.8145 133.776L38.2079 120.595L27.4579 126.798L33.5753 142.588C30.4392 145.122 27.584 147.977 25.0499 151.113L9.26598 144.996L3.05679 155.746L16.2377 166.353C14.8044 170.068 13.738 173.961 13.1131 178.008L-3.59961 180.6V193.013L13.1131 195.604C13.7437 199.646 14.8044 203.545 16.2377 207.254L16.2435 207.243ZM25.0556 186.792C25.0556 162.374 44.8528 142.576 69.2711 142.576C93.6893 142.576 113.487 162.374 113.487 186.792C113.487 211.21 93.6893 231.007 69.2711 231.007C44.8528 231.007 25.0556 211.21 25.0556 186.792Z" fill="#E0E0E0"/>
<path d="M-9.49927 186.792C-9.49927 143.356 25.841 108.022 69.271 108.022C112.701 108.022 148.041 143.356 148.041 186.792C148.041 230.228 112.707 265.562 69.271 265.562C25.8353 265.562 -9.49927 230.228 -9.49927 186.792ZM-8.99473 186.792C-8.99473 229.953 26.1162 265.064 69.2768 265.064C112.437 265.064 147.548 229.953 147.548 186.792C147.548 143.631 112.437 108.521 69.2768 108.521C26.1162 108.521 -8.99473 143.631 -8.99473 186.792Z" fill="#E0E0E0"/>
<path d="M69.2709 95.2708C50.844 95.2708 33.6784 100.746 19.3049 110.155V108.956C33.7243 99.6683 50.8784 94.2732 69.2709 94.2732C113.32 94.2732 150.271 125.216 159.548 166.502L158.573 166.731C149.4 125.887 112.85 95.2766 69.2767 95.2766L69.2709 95.2708Z" fill="#E0E0E0"/>
<path d="M-8.12315 136.155H-6.91916C-16.597 150.666 -22.2501 168.078 -22.2501 186.792C-22.2501 237.257 18.8063 278.313 69.2711 278.313C119.736 278.313 156.607 241.305 160.471 194.371L161.52 193.913C157.874 241.614 117.89 279.311 69.2711 279.311C18.2559 279.311 -23.2534 237.807 -23.2534 186.786C-23.2534 168.107 -17.6864 150.706 -8.12315 136.15V136.155Z" fill="#E0E0E0"/>
<path d="M135.308 118.6L136.019 117.889C149.205 130.668 158.745 147.186 162.914 165.711L161.939 165.94C157.811 147.599 148.368 131.247 135.313 118.6H135.308Z" fill="#E0E0E0"/>
<path d="M164.054 192.812L165.092 192.359C163.487 220.286 149.882 245.048 129.373 261.566L128.662 260.855C148.878 244.613 162.329 220.275 164.054 192.812Z" fill="#E0E0E0"/>
<path d="M-12.2228 136.155H-11.036C-20.3183 150.821 -25.7076 168.187 -25.7076 186.792C-25.7076 212.431 -15.4908 235.726 1.07853 252.829L0.367593 253.539C-16.3852 236.253 -26.7109 212.707 -26.7109 186.792C-26.7109 168.216 -21.3961 150.867 -12.2228 136.155Z" fill="#E0E0E0"/>
<path d="M19.3049 100.408C34.0109 91.8651 51.0791 86.9689 69.2709 86.9689C106.905 86.9689 139.739 107.907 156.744 138.741L155.867 139.228C139.034 108.698 106.526 87.9665 69.2652 87.9665C51.0447 87.9665 33.9651 92.9258 19.2992 101.56V100.402L19.3049 100.408Z" fill="#E0E0E0"/>
<path d="M69.2711 285.612C99.3711 285.612 126.364 272.081 144.504 250.787L145.272 251.43C126.948 272.947 99.675 286.615 69.2654 286.615C32.1764 286.615 -0.2513 266.279 -17.4628 236.179L-16.5856 235.686C0.453899 265.482 32.5548 285.612 69.2654 285.612H69.2711Z" fill="#E0E0E0"/>
<path d="M15.0452 124.035C29.4588 111.565 48.1953 103.963 68.669 103.813V104.312C48.1609 104.461 29.4129 112.133 15.0452 124.7V124.035Z" fill="#E0E0E0"/>
<path d="M6.18133 132.985H6.84067C-1.22039 142.319 -7.23466 153.458 -10.4797 165.728H-11.0015C-7.78506 153.481 -1.81667 142.341 6.18133 132.985Z" fill="#E0E0E0"/>
<path d="M16.1287 250.478L16.4841 250.122C30.8003 262.076 49.21 269.277 69.2709 269.277C84.2464 269.277 98.3045 265.264 110.419 258.258L110.717 258.665C98.5167 265.729 84.3553 269.776 69.2709 269.776C49.0724 269.776 30.5365 262.518 16.1287 250.478Z" fill="#E0E0E0"/>
<path d="M71.0254 97.2946H67.5166V108.274H71.0254V97.2946Z" fill="#E0E0E0"/>
<path d="M75.321 97.4713L74.3641 108.409L77.8596 108.715L78.8165 97.7771L75.321 97.4713Z" fill="#E0E0E0"/>
<path d="M83.0766 98.345L81.17 109.158L84.6255 109.767L86.5321 98.9543L83.0766 98.345Z" fill="#E0E0E0"/>
<path d="M90.7378 99.8816L87.8961 110.487L91.2854 111.395L94.127 100.79L90.7378 99.8816Z" fill="#E0E0E0"/>
<path d="M98.226 102.084L94.4708 112.401L97.768 113.601L101.523 103.284L98.226 102.084Z" fill="#E0E0E0"/>
<path d="M105.498 104.917L100.858 114.868L104.038 116.351L108.678 106.4L105.498 104.917Z" fill="#E0E0E0"/>
<path d="M112.517 108.424L107.025 117.931L110.064 119.686L115.555 110.179L112.517 108.424Z" fill="#E0E0E0"/>
<path d="M119.163 112.466L112.866 121.459L115.74 123.472L122.037 114.478L119.163 112.466Z" fill="#E0E0E0"/>
<path d="M125.454 117.092L118.396 125.502L121.084 127.758L128.142 119.347L125.454 117.092Z" fill="#E0E0E0"/>
<path d="M17.4563 245.805L10.4026 254.212L13.0905 256.467L20.1442 248.061L17.4563 245.805Z" fill="#E0E0E0"/>
<path d="M131.31 122.245L123.547 130.009L126.028 132.49L133.791 124.727L131.31 122.245Z" fill="#E0E0E0"/>
<path d="M12.5056 241.075L4.74609 248.834L7.22719 251.315L14.9867 243.556L12.5056 241.075Z" fill="#E0E0E0"/>
<path d="M136.698 127.889L128.287 134.946L130.542 137.634L138.953 130.577L136.698 127.889Z" fill="#E0E0E0"/>
<path d="M7.99086 235.936L-0.4198 242.993L1.83561 245.681L10.2463 238.623L7.99086 235.936Z" fill="#E0E0E0"/>
<path d="M141.578 134.016L132.584 140.314L134.597 143.188L143.59 136.891L141.578 134.016Z" fill="#E0E0E0"/>
<path d="M3.93692 230.394L-5.05212 236.688L-3.03956 239.562L5.94949 233.268L3.93692 230.394Z" fill="#E0E0E0"/>
<path d="M145.906 140.514L136.398 146.004L138.152 149.042L147.661 143.553L145.906 140.514Z" fill="#E0E0E0"/>
<path d="M0.388189 224.538L-9.11523 230.025L-7.36084 233.064L2.14259 227.577L0.388189 224.538Z" fill="#E0E0E0"/>
<path d="M149.646 147.359L139.696 151.999L141.179 155.179L151.129 150.539L149.646 147.359Z" fill="#E0E0E0"/>
<path d="M152.775 154.514L142.458 158.27L143.658 161.567L153.976 157.812L152.775 154.514Z" fill="#E0E0E0"/>
<path d="M145.588 205.435L144.679 208.824L155.284 211.667L156.193 208.278L145.588 205.435Z" fill="#E0E0E0"/>
<path d="M143.653 211.994L142.452 215.291L152.769 219.048L153.969 215.751L143.653 211.994Z" fill="#E0E0E0"/>
<path d="M141.189 218.409L139.706 221.589L149.656 226.229L151.139 223.049L141.189 218.409Z" fill="#E0E0E0"/>
<path d="M138.154 224.536L136.399 227.574L145.906 233.066L147.661 230.027L138.154 224.536Z" fill="#E0E0E0"/>
<path d="M134.6 230.402L132.587 233.275L141.58 239.574L143.593 236.701L134.6 230.402Z" fill="#E0E0E0"/>
<path d="M130.547 235.893L128.291 238.581L136.702 245.639L138.957 242.951L130.547 235.893Z" fill="#E0E0E0"/>
<path d="M126.035 241.1L123.554 243.581L131.316 251.346L133.798 248.865L126.035 241.1Z" fill="#E0E0E0"/>
<path d="M121.091 245.821L118.402 248.076L125.458 256.488L128.146 254.233L121.091 245.821Z" fill="#E0E0E0"/>
<path d="M115.75 250.097L112.875 252.109L119.171 261.104L122.046 259.092L115.75 250.097Z" fill="#E0E0E0"/>
<path d="M110.056 253.905L107.017 255.659L112.507 265.167L115.546 263.413L110.056 253.905Z" fill="#E0E0E0"/>
<path d="M-28.8952 123.668L-35.1043 128.662L-32.1803 133.724L-24.7442 130.84C-23.5517 132.314 -22.2043 133.661 -20.7309 134.854L-23.6147 142.29L-18.5522 145.214L-13.5585 139.005C-11.8098 139.681 -9.97515 140.18 -8.07168 140.478L-6.85048 148.35H-1.00248L0.218723 140.478C2.12219 140.18 3.95685 139.681 5.70552 139.005L10.6992 145.214L15.7618 142.29L12.8779 134.854C14.3514 133.661 15.6987 132.314 16.8913 130.84L24.3274 133.724L27.2514 128.662L21.0422 123.668C21.7187 121.919 22.2175 120.085 22.5157 118.181L30.3875 116.96V111.112L22.5157 109.891C22.2175 107.987 21.7187 106.153 21.0422 104.404L27.2514 99.4102L24.3274 94.3477L16.8913 97.2316C15.6987 95.7524 14.3514 94.4108 12.8779 93.2182L15.7561 85.7821L10.6935 82.8581L5.69978 89.0673C3.95111 88.3908 2.11645 87.892 0.212985 87.5938L-1.00821 79.722H-6.85622L-8.07741 87.5938C-9.98088 87.892 -11.8155 88.3908 -13.5642 89.0673L-18.5579 82.8581L-23.6205 85.7821L-20.7366 93.2182C-22.2158 94.4108 -23.5574 95.7581 -24.7499 97.2316L-32.1861 94.3477L-35.1101 99.4102L-28.9009 104.404C-29.5774 106.153 -30.0762 107.987 -30.3743 109.891L-38.2462 111.112V116.96L-30.3743 118.181C-30.0762 120.085 -29.5774 121.919 -28.9009 123.668H-28.8952ZM-24.7442 114.036C-24.7442 102.535 -15.4218 93.2068 -3.91501 93.2068C7.59179 93.2068 16.9142 102.529 16.9142 114.036C16.9142 125.543 7.59179 134.865 -3.91501 134.865C-15.4218 134.865 -24.7442 125.543 -24.7442 114.036Z" fill="url(#paint2_linear_240_204)"/>
<path d="M155.374 183.834L151.326 187.09L153.23 190.387L158.074 188.512C158.854 189.475 159.731 190.352 160.689 191.126L158.814 195.971L162.111 197.874L165.367 193.832C166.508 194.274 167.701 194.601 168.945 194.79L169.742 199.921H173.549L174.346 194.79C175.584 194.595 176.782 194.268 177.923 193.832L181.18 197.874L184.477 195.971L182.602 191.126C183.565 190.352 184.442 189.475 185.216 188.512L190.061 190.387L191.964 187.09L187.917 183.834C188.358 182.693 188.685 181.5 188.874 180.256L194.005 179.459V175.652L188.874 174.855C188.679 173.617 188.352 172.418 187.917 171.278L191.964 168.021L190.061 164.719L185.216 166.593C184.436 165.63 183.559 164.753 182.602 163.979L184.477 159.134L181.18 157.231L177.923 161.279C176.782 160.837 175.59 160.51 174.346 160.321L173.549 155.19H169.742L168.945 160.321C167.706 160.51 166.508 160.843 165.367 161.279L162.111 157.231L158.814 159.134L160.689 163.979C159.726 164.759 158.848 165.636 158.074 166.593L153.23 164.719L151.326 168.015L155.374 171.272C154.933 172.413 154.606 173.605 154.417 174.849L149.285 175.646V179.453L154.417 180.25C154.612 181.489 154.938 182.687 155.374 183.828V183.834ZM158.08 177.556C158.08 170.062 164.158 163.985 171.651 163.985C179.144 163.985 185.222 170.062 185.222 177.556C185.222 185.049 179.15 191.126 171.651 191.126C164.152 191.126 158.08 185.049 158.08 177.556Z" fill="url(#paint3_linear_240_204)"/>
<path d="M163.401 177.561C163.401 182.119 167.093 185.806 171.646 185.806C176.198 185.806 179.89 182.113 179.89 177.561C179.89 173.009 176.198 169.317 171.646 169.317C167.093 169.317 163.401 173.009 163.401 177.561Z" fill="url(#paint4_linear_240_204)"/>
<path d="M-28.379 149.17C-32.6561 160.568 -35.0067 172.912 -35.0067 185.806C-35.0067 243.397 11.6798 290.084 69.2711 290.084C117.867 290.084 158.694 256.842 170.27 211.858L181.914 214.908C168.991 265.063 123.463 302.118 69.2769 302.118C5.0406 302.118 -47.0353 250.042 -47.0353 185.806C-47.0353 171.427 -44.4209 157.655 -39.645 144.944L-28.379 149.17Z" fill="url(#paint5_linear_240_204)"/>
<path d="M178.893 146.859L167.563 150.918C153.316 110.785 115.195 81.9637 70.2745 81.5394V69.5052C120.413 69.9294 162.977 102.076 178.893 146.859Z" fill="url(#paint6_linear_240_204)"/>
<path d="M193.335 225.297L208.694 240.657H259.956V241.161H208.488L193.128 225.802H156.332L155.948 225.297H193.335Z" fill="#BABABA"/>
<path d="M193.335 220.286L208.694 235.646H245.422V236.144H208.488L193.128 220.785H152.112L151.636 220.286H193.335Z" fill="#BABABA"/>
<path d="M193.335 215.27L208.694 230.629H233.72V231.134H208.488L193.128 215.774H147.342L146.751 215.27H193.335Z" fill="#BABABA"/>
<path d="M193.335 210.259L208.694 225.618H224.031V226.117H208.488L193.128 210.757H141.884L141.293 210.259H193.335Z" fill="#BABABA"/>
<path d="M221.273 225.87C221.273 227.395 222.506 228.628 224.031 228.628C225.556 228.628 226.789 227.395 226.789 225.87C226.789 224.345 225.556 223.113 224.031 223.113C222.506 223.113 221.273 224.345 221.273 225.87Z" fill="url(#paint7_radial_240_204)"/>
<path d="M230.962 230.881C230.962 232.406 232.195 233.639 233.72 233.639C235.245 233.639 236.478 232.406 236.478 230.881C236.478 229.356 235.245 228.124 233.72 228.124C232.195 228.124 230.962 229.356 230.962 230.881Z" fill="url(#paint8_radial_240_204)"/>
<path d="M242.83 235.898C242.83 237.423 244.063 238.656 245.588 238.656C247.113 238.656 248.346 237.423 248.346 235.898C248.346 234.373 247.113 233.14 245.588 233.14C244.063 233.14 242.83 234.373 242.83 235.898Z" fill="url(#paint9_radial_240_204)"/>
<path d="M257.198 240.909C257.198 242.434 258.431 243.667 259.956 243.667C261.481 243.667 262.714 242.434 262.714 240.909C262.714 239.384 261.481 238.151 259.956 238.151C258.431 238.151 257.198 239.384 257.198 240.909Z" fill="url(#paint10_radial_240_204)"/>
<path d="M-36.9848 287.962C-65.3017 259.645 -80.8964 221.995 -80.8964 181.947C-80.8964 141.9 -65.3017 104.249 -36.9848 75.9323C-8.66783 47.6153 28.983 32.0207 69.0303 32.0207C109.078 32.0207 146.728 47.6153 175.045 75.9323C203.362 104.249 218.957 141.9 218.957 181.947C218.957 221.995 203.362 259.645 175.045 287.962C146.728 316.279 109.078 331.874 69.0303 331.874C28.983 331.874 -8.66783 316.279 -36.9848 287.962ZM-80.323 181.947C-80.323 264.301 -13.3233 331.301 69.0303 331.301C151.384 331.301 218.384 264.301 218.384 181.947C218.384 99.5937 151.384 32.594 69.0303 32.594C-13.3233 32.594 -80.323 99.5937 -80.323 181.947Z" fill="#D1D1D1"/>
<path d="M-42.0132 292.991C-71.6717 263.332 -88.006 223.892 -88.006 181.947C-88.006 140.002 -71.6717 100.563 -42.0132 70.9041C-12.3547 41.2456 27.0849 24.9113 69.03 24.9113C110.975 24.9113 150.409 41.2456 180.073 70.9041C209.732 100.563 226.066 140.002 226.066 181.947C226.066 223.892 209.732 263.332 180.073 292.991C150.415 322.649 110.975 338.983 69.03 338.983C27.0849 338.983 -12.3547 322.649 -42.0132 292.991ZM-87.4326 181.947C-87.4326 268.223 -17.2452 338.41 69.03 338.41C155.305 338.41 225.493 268.223 225.493 181.947C225.493 95.6721 155.305 25.4847 69.03 25.4847C-17.2452 25.4847 -87.4326 95.6721 -87.4326 181.947Z" fill="#D1D1D1"/>
<path d="M72.3727 342.062V342.051C72.3727 341.753 72.6077 341.5 72.9059 341.483H72.9288C75.5776 341.414 78.2494 341.288 80.8752 341.093C81.1848 341.065 81.4657 341.311 81.4887 341.621C81.4887 341.638 81.4944 341.649 81.4944 341.667C81.4887 341.953 81.2708 342.2 80.9841 342.234H80.9612C80.9612 342.234 80.9326 342.24 80.9268 342.24C78.2952 342.429 75.6177 342.561 72.9575 342.624H72.946C72.6307 342.624 72.3784 342.378 72.3727 342.062ZM56.9443 342.223C56.6461 342.206 56.4168 341.953 56.4111 341.655C56.4111 341.638 56.4111 341.626 56.4111 341.609C56.434 341.3 56.6978 341.059 57.0246 341.082C59.6848 341.277 62.3565 341.409 64.9709 341.472C65.2805 341.483 65.5271 341.741 65.5271 342.045V342.062C65.5271 342.378 65.2691 342.624 64.9537 342.624H64.9423C62.2706 342.555 59.5816 342.423 56.9386 342.223H56.9443ZM88.9019 341.454C88.598 341.477 88.3285 341.254 88.2941 340.956C88.2941 340.927 88.2941 340.904 88.2941 340.881C88.2941 340.6 88.5006 340.365 88.7758 340.319H88.7987C91.4245 339.992 94.0676 339.597 96.6648 339.144C96.9744 339.087 97.2725 339.299 97.3299 339.608C97.3356 339.643 97.3356 339.677 97.3356 339.712C97.3356 339.987 97.1349 340.222 96.8655 340.273C94.2511 340.726 91.5965 341.122 88.9764 341.449C88.9649 341.449 88.9535 341.449 88.9363 341.449H88.9076L88.9019 341.454ZM48.975 341.432C46.3376 341.105 43.6716 340.703 41.0515 340.245C40.7763 340.193 40.5756 339.958 40.5756 339.683C40.5756 339.648 40.5756 339.614 40.5871 339.58C40.6387 339.27 40.9368 339.058 41.2464 339.115C43.8436 339.568 46.4924 339.97 49.1125 340.296C49.3992 340.331 49.6171 340.572 49.6171 340.864C49.6171 340.887 49.6171 340.91 49.6113 340.933C49.5769 341.219 49.3304 341.437 49.0437 341.437C49.0208 341.437 48.9979 341.437 48.975 341.437V341.432ZM104.026 338.267C104.015 338.221 104.015 338.181 104.015 338.135C104.015 337.865 104.198 337.636 104.456 337.579H104.491C107.036 336.994 109.616 336.34 112.151 335.629H112.173C112.472 335.543 112.793 335.727 112.879 336.025C112.89 336.077 112.896 336.128 112.896 336.18C112.896 336.386 112.787 336.575 112.609 336.673H112.655L112.466 336.736C109.909 337.453 107.3 338.112 104.714 338.697C104.669 338.708 104.628 338.714 104.588 338.714C104.319 338.714 104.089 338.525 104.026 338.267ZM33.1968 338.662C30.6054 338.072 27.991 337.407 25.4339 336.69C25.1874 336.616 25.0153 336.392 25.0153 336.14C25.0153 336.082 25.0154 336.031 25.0383 335.979C25.1186 335.681 25.4454 335.498 25.7435 335.584H25.7607C28.2891 336.3 30.8806 336.96 33.4491 337.544C33.7128 337.602 33.8963 337.831 33.8963 338.1C33.8963 338.146 33.8963 338.186 33.8848 338.232C33.8275 338.49 33.5924 338.68 33.323 338.68C33.2828 338.68 33.237 338.68 33.1968 338.662ZM119.415 334.013C119.392 333.955 119.38 333.892 119.38 333.829C119.38 333.583 119.541 333.365 119.776 333.29C122.293 332.442 124.81 331.53 127.269 330.567C127.556 330.452 127.894 330.601 128.009 330.888C128.038 330.957 128.049 331.026 128.049 331.1C128.049 331.335 127.906 331.547 127.682 331.633C125.182 332.614 122.648 333.537 120.137 334.374C120.08 334.397 120.017 334.402 119.959 334.402C119.713 334.402 119.489 334.248 119.415 334.013ZM17.7741 334.328C15.2744 333.485 12.7518 332.568 10.2807 331.593C10.2692 331.593 10.2578 331.593 10.2463 331.582H10.2291C10.017 331.484 9.88509 331.278 9.88509 331.048C9.88509 330.98 9.89656 330.905 9.92523 330.836C10.0399 330.55 10.3724 330.401 10.6648 330.515C13.1187 331.478 15.6356 332.396 18.1411 333.239C18.3762 333.319 18.5309 333.537 18.5309 333.783C18.5309 333.846 18.5195 333.904 18.5023 333.967C18.422 334.202 18.2041 334.357 17.9576 334.357C17.8945 334.357 17.8372 334.345 17.7741 334.328ZM134.327 328.228C134.293 328.153 134.275 328.073 134.275 327.993C134.275 327.769 134.407 327.563 134.608 327.471C137.01 326.387 139.418 325.229 141.757 324.025L141.832 323.991C142.101 323.882 142.428 324.002 142.56 324.26C142.6 324.34 142.623 324.426 142.623 324.518C142.623 324.73 142.509 324.92 142.325 325.023L142.314 325.034C142.314 325.034 142.291 325.04 142.285 325.046C139.934 326.25 137.526 327.414 135.113 328.503C135.113 328.503 135.095 328.503 135.084 328.514L135.044 328.532C134.981 328.554 134.912 328.566 134.849 328.566C134.625 328.566 134.419 328.434 134.327 328.228ZM2.88468 328.474C0.459477 327.379 -1.95999 326.21 -4.32213 324.994C-4.51133 324.897 -4.63171 324.702 -4.63171 324.484C-4.63171 324.392 -4.60879 324.306 -4.56866 324.226C-4.42532 323.951 -4.06985 323.836 -3.79465 323.979L-3.71438 324.019C-1.41531 325.2 0.952549 326.341 3.32042 327.414C3.33188 327.414 3.34335 327.414 3.35481 327.425H3.36628C3.56694 327.528 3.69308 327.729 3.69308 327.952C3.69308 328.033 3.67588 328.113 3.64148 328.188C3.54975 328.388 3.34335 328.52 3.11975 328.52C3.03948 328.52 2.95921 328.509 2.88468 328.474ZM148.574 320.981C148.523 320.895 148.494 320.797 148.494 320.694C148.494 320.493 148.603 320.298 148.781 320.201C151.074 318.871 153.362 317.472 155.575 316.044C155.833 315.872 156.2 315.953 156.366 316.211C156.429 316.302 156.458 316.411 156.458 316.52C156.458 316.715 156.36 316.899 156.2 317.002C153.958 318.452 151.659 319.863 149.354 321.187C149.268 321.239 149.171 321.267 149.067 321.267C148.867 321.267 148.678 321.158 148.574 320.981ZM-11.3455 321.164C-13.6331 319.84 -15.9207 318.435 -18.1452 316.996L-18.2541 316.933H-18.2369C-18.3573 316.824 -18.4319 316.669 -18.4261 316.503C-18.4261 316.388 -18.3975 316.285 -18.3401 316.193C-18.1739 315.935 -17.8012 315.855 -17.5432 316.021C-15.3359 317.449 -13.0655 318.842 -10.7893 320.161C-10.7779 320.161 -10.7721 320.167 -10.7664 320.172L-10.6804 320.224H-10.6919C-10.56 320.333 -10.4797 320.493 -10.4797 320.671C-10.4797 320.769 -10.5084 320.866 -10.56 320.952C-10.6632 321.13 -10.8524 321.239 -11.0588 321.239C-11.1563 321.239 -11.2537 321.216 -11.3455 321.164ZM162.019 312.352C161.95 312.255 161.91 312.14 161.91 312.02C161.91 311.836 162.002 311.658 162.151 311.549L162.197 311.521C164.324 309.99 166.439 308.385 168.481 306.751H168.492C168.733 306.55 169.111 306.596 169.3 306.837C169.381 306.934 169.421 307.054 169.427 307.186C169.427 307.364 169.346 307.53 169.209 307.639C167.127 309.302 164.977 310.93 162.822 312.484C162.724 312.553 162.604 312.593 162.483 312.593C162.3 312.593 162.128 312.501 162.019 312.352ZM-24.7787 312.472C-26.9287 310.924 -29.0672 309.302 -31.1369 307.651C-31.1369 307.651 -31.1541 307.639 -31.1599 307.628L-31.2172 307.582C-31.3146 307.473 -31.3777 307.33 -31.372 307.181C-31.372 307.049 -31.3318 306.928 -31.2516 306.825C-31.0566 306.584 -30.684 306.544 -30.4432 306.733L-30.4317 306.745C-28.3849 308.379 -26.2693 309.984 -24.1365 311.521C-24.1251 311.521 -24.1193 311.532 -24.1079 311.538L-24.0964 311.549C-23.953 311.658 -23.8671 311.83 -23.8728 312.008C-23.8728 312.128 -23.9072 312.243 -23.976 312.341C-24.0849 312.49 -24.2569 312.576 -24.4461 312.576C-24.5665 312.576 -24.6812 312.541 -24.7787 312.472ZM174.541 302.433C174.449 302.33 174.397 302.198 174.397 302.061C174.392 301.894 174.466 301.74 174.587 301.625C176.582 299.865 178.548 298.042 180.423 296.213C180.641 296.001 181.019 296.006 181.231 296.224C181.335 296.333 181.392 296.471 181.398 296.62C181.398 296.775 181.335 296.924 181.22 297.038C179.339 298.873 177.367 300.702 175.372 302.462L175.297 302.531C175.2 302.594 175.085 302.628 174.965 302.628C174.804 302.628 174.65 302.56 174.541 302.433ZM-37.2945 302.479C-39.2897 300.719 -41.262 298.89 -43.1655 297.033C-43.2744 296.924 -43.3374 296.769 -43.3374 296.614C-43.3374 296.459 -43.2801 296.327 -43.1769 296.224C-42.959 296.001 -42.5806 296.001 -42.3628 296.213C-40.4708 298.059 -38.5043 299.882 -36.532 301.619C-36.4059 301.734 -36.3371 301.889 -36.3371 302.055C-36.3371 302.193 -36.3887 302.33 -36.4804 302.433C-36.5893 302.554 -36.7499 302.623 -36.9104 302.623C-37.0537 302.623 -37.1856 302.577 -37.2945 302.479ZM186.007 291.334C185.893 291.225 185.824 291.07 185.824 290.904C185.824 290.76 185.881 290.628 185.979 290.52C187.767 288.599 189.539 286.592 191.248 284.563C191.443 284.328 191.821 284.299 192.05 284.494C192.182 284.603 192.257 284.763 192.257 284.935C192.257 285.067 192.205 285.199 192.125 285.302C190.405 287.343 188.616 289.361 186.816 291.305C186.707 291.42 186.558 291.488 186.397 291.488C186.254 291.488 186.116 291.431 186.007 291.334ZM-48.7612 291.299C-50.5787 289.344 -52.3617 287.326 -54.0702 285.291C-54.1505 285.193 -54.2021 285.061 -54.2021 284.93C-54.2021 284.758 -54.1276 284.597 -53.9957 284.482C-53.7607 284.287 -53.3822 284.322 -53.193 284.557C-51.5017 286.569 -49.7301 288.576 -47.9241 290.52C-47.8266 290.623 -47.7693 290.76 -47.7693 290.904C-47.7693 291.064 -47.8324 291.219 -47.9528 291.328C-48.056 291.425 -48.1936 291.483 -48.3427 291.483C-48.4917 291.483 -48.6523 291.414 -48.7612 291.299ZM196.316 279.156C196.173 279.041 196.092 278.875 196.092 278.692C196.092 278.571 196.132 278.451 196.207 278.353C197.801 276.255 199.366 274.082 200.857 271.903C201.029 271.651 201.401 271.577 201.654 271.754C201.808 271.858 201.906 272.041 201.906 272.23C201.906 272.345 201.866 272.454 201.803 272.551C200.318 274.718 198.747 276.897 197.141 279.018C197.136 279.018 197.13 279.036 197.124 279.047L197.113 279.059C197.004 279.19 196.838 279.271 196.666 279.271C196.539 279.271 196.419 279.231 196.316 279.156ZM-59.0697 279.03C-60.675 276.914 -62.246 274.736 -63.7424 272.551C-63.7424 272.54 -63.7539 272.534 -63.7596 272.523L-63.7882 272.482C-63.8341 272.396 -63.8571 272.305 -63.8571 272.207C-63.8571 272.012 -63.7653 271.835 -63.6105 271.731C-63.3525 271.554 -62.9856 271.628 -62.8136 271.88C-61.3172 274.065 -59.752 276.238 -58.1581 278.336C-58.0836 278.439 -58.0435 278.554 -58.0435 278.68C-58.0435 278.864 -58.1237 279.03 -58.2671 279.139C-58.3703 279.219 -58.4849 279.259 -58.6168 279.259C-58.7945 279.259 -58.9608 279.173 -59.0697 279.03ZM205.369 266.021C205.197 265.912 205.094 265.729 205.094 265.528C205.094 265.425 205.122 265.322 205.174 265.236C206.544 263 207.886 260.689 209.159 258.356C209.308 258.092 209.669 257.983 209.938 258.132C210.122 258.229 210.236 258.424 210.236 258.636C210.236 258.728 210.213 258.82 210.168 258.9L210.156 258.929C208.889 261.245 207.542 263.567 206.154 265.832C206.051 266.004 205.868 266.107 205.667 266.107C205.558 266.107 205.455 266.078 205.369 266.021ZM-68.1169 265.792C-69.5044 263.533 -70.8574 261.194 -72.136 258.849C-72.1818 258.768 -72.2048 258.671 -72.2048 258.579C-72.2048 258.367 -72.0901 258.172 -71.9066 258.075C-71.6372 257.926 -71.276 258.034 -71.1269 258.304C-69.8599 260.626 -68.5183 262.942 -67.1365 265.195C-67.0849 265.287 -67.0563 265.39 -67.0563 265.494C-67.0563 265.694 -67.1537 265.878 -67.3315 265.981C-67.4175 266.038 -67.5264 266.067 -67.6296 266.067C-67.8245 266.067 -68.0137 265.964 -68.1169 265.792ZM213.057 252.06C212.862 251.969 212.736 251.762 212.736 251.544C212.736 251.458 212.753 251.372 212.793 251.298C213.952 248.896 215.052 246.465 216.067 244.062C216.188 243.781 216.532 243.638 216.818 243.758C217.03 243.85 217.168 244.057 217.168 244.286C217.168 244.366 217.151 244.441 217.122 244.51C216.09 246.952 214.984 249.4 213.825 251.797C213.728 251.992 213.527 252.118 213.309 252.118C213.223 252.118 213.137 252.1 213.057 252.06ZM-75.8053 251.716C-76.9635 249.314 -78.0757 246.854 -79.1077 244.401C-79.1364 244.332 -79.1536 244.257 -79.1536 244.177C-79.1536 243.948 -79.016 243.741 -78.8039 243.65C-78.5172 243.529 -78.1732 243.672 -78.0528 243.953C-77.0322 246.373 -75.9257 248.815 -74.7733 251.218C-74.7332 251.292 -74.716 251.378 -74.716 251.464C-74.716 251.682 -74.8421 251.888 -75.0371 251.98C-75.1173 252.02 -75.1976 252.037 -75.2836 252.037C-75.5072 252.037 -75.7079 251.917 -75.8053 251.716ZM219.318 237.417C219.094 237.331 218.94 237.119 218.94 236.878C218.94 236.81 218.951 236.741 218.974 236.678C219.886 234.178 220.74 231.644 221.514 229.138C221.606 228.846 221.932 228.674 222.231 228.766C222.471 228.84 222.638 229.058 222.638 229.31C222.638 229.368 222.626 229.425 222.609 229.482C221.823 232.017 220.969 234.562 220.063 237.039C220.063 237.05 220.063 237.062 220.052 237.073V237.091C219.96 237.308 219.748 237.452 219.513 237.452C219.444 237.452 219.381 237.44 219.318 237.417ZM-82.0432 236.93C-82.9605 234.407 -83.8205 231.845 -84.6003 229.31C-84.6175 229.259 -84.6289 229.202 -84.6289 229.144C-84.6289 228.892 -84.4627 228.668 -84.2219 228.6C-83.9237 228.508 -83.5969 228.68 -83.5052 228.978L-83.4937 229.012C-82.7197 231.529 -81.8712 234.058 -80.9653 236.534C-80.9424 236.598 -80.9309 236.666 -80.9309 236.735C-80.9309 236.97 -81.0857 237.188 -81.3093 237.268C-81.3724 237.291 -81.4412 237.303 -81.5043 237.303C-81.7451 237.303 -81.9629 237.154 -82.0432 236.93ZM224.088 222.184C223.83 222.115 223.658 221.892 223.652 221.628C223.652 221.582 223.658 221.53 223.675 221.484C224.329 218.916 224.919 216.307 225.441 213.733C225.504 213.423 225.82 213.223 226.118 213.286C226.387 213.337 226.576 213.572 226.576 213.842C226.576 213.882 226.576 213.922 226.565 213.957C226.037 216.577 225.435 219.203 224.782 221.771C224.719 222.023 224.489 222.201 224.231 222.201C224.18 222.201 224.134 222.201 224.088 222.184ZM-86.7675 221.599C-87.4211 219.019 -88.0173 216.393 -88.539 213.785C-88.5505 213.75 -88.5505 213.71 -88.5505 213.67C-88.5505 213.4 -88.3556 213.165 -88.0919 213.114C-87.788 213.051 -87.4784 213.257 -87.4153 213.561V213.595H-87.4096C-86.8878 216.187 -86.2973 218.784 -85.6552 221.318C-85.6437 221.364 -85.638 221.41 -85.638 221.462C-85.638 221.72 -85.8157 221.949 -86.068 222.012C-86.1139 222.023 -86.1655 222.029 -86.2113 222.029C-86.4751 222.029 -86.6987 221.857 -86.7675 221.599ZM227.305 206.549C227.029 206.509 226.817 206.262 226.817 205.987C226.817 205.953 226.817 205.924 226.817 205.896C227.213 203.275 227.545 200.615 227.803 198.006C227.838 197.691 228.119 197.462 228.434 197.49C228.726 197.519 228.95 197.766 228.95 198.058C228.95 198.081 228.95 198.098 228.95 198.121C228.692 200.741 228.354 203.419 227.958 206.068C227.912 206.348 227.671 206.555 227.391 206.555C227.362 206.555 227.333 206.555 227.305 206.555V206.549ZM-89.9208 205.896C-90.3164 203.27 -90.6432 200.592 -90.9069 197.943C-90.9069 197.926 -90.9069 197.903 -90.9069 197.886C-90.9069 197.588 -90.6833 197.347 -90.3852 197.318C-90.0699 197.29 -89.7889 197.519 -89.7603 197.834C-89.5023 200.472 -89.1697 203.126 -88.7798 205.724C-88.7798 205.758 -88.7798 205.787 -88.7798 205.81C-88.7798 206.096 -88.9862 206.331 -89.2729 206.377C-89.3016 206.377 -89.3302 206.377 -89.3532 206.377C-89.6398 206.377 -89.8807 206.171 -89.9208 205.89V205.896ZM228.95 190.674C228.646 190.656 228.405 190.41 228.405 190.106V190.072C228.537 187.411 228.606 184.74 228.606 182.119C228.606 181.804 228.864 181.546 229.179 181.546C229.334 181.546 229.477 181.609 229.586 181.718C229.695 181.821 229.753 181.97 229.753 182.119C229.753 184.785 229.684 187.48 229.552 190.129C229.535 190.438 229.283 190.674 228.979 190.674H228.95ZM-91.4975 189.951C-91.6293 187.325 -91.6924 184.631 -91.6924 181.947V181.603C-91.6924 181.288 -91.4344 181.03 -91.119 181.03C-90.9642 181.03 -90.8209 181.087 -90.712 181.196C-90.6031 181.305 -90.5457 181.449 -90.5457 181.603V181.947C-90.5457 184.585 -90.4827 187.256 -90.3508 189.9V189.928C-90.3508 190.232 -90.5916 190.484 -90.8954 190.502H-90.9241C-91.2337 190.502 -91.486 190.261 -91.4975 189.951ZM228.423 174.167C228.296 171.518 228.101 168.847 227.843 166.232V166.175C227.843 165.883 228.067 165.636 228.359 165.607C228.686 165.579 228.956 165.808 228.984 166.123C229.242 168.761 229.437 171.444 229.569 174.116V174.144C229.569 174.448 229.328 174.695 229.025 174.712H228.996C228.686 174.712 228.44 174.471 228.423 174.167ZM-90.9356 174.196C-91.2452 174.179 -91.4803 173.926 -91.4803 173.623V173.594C-91.3427 170.934 -91.142 168.245 -90.8725 165.602C-90.8438 165.292 -90.5572 165.063 -90.2476 165.091C-89.9495 165.12 -89.7316 165.367 -89.7316 165.659V165.716C-89.9953 168.325 -90.2017 170.997 -90.3336 173.651C-90.3508 173.955 -90.6031 174.196 -90.9069 174.196H-90.9356ZM226.875 158.338C226.485 155.735 226.032 153.109 225.516 150.534C225.516 150.523 225.516 150.512 225.516 150.5V150.466C225.516 150.466 225.516 150.414 225.516 150.385C225.516 150.116 225.711 149.881 225.98 149.829C226.278 149.766 226.576 149.961 226.645 150.254V150.276C226.645 150.276 226.657 150.305 226.657 150.311C227.178 152.902 227.637 155.551 228.027 158.171C228.027 158.2 228.027 158.229 228.027 158.257C228.027 158.544 227.821 158.779 227.534 158.825C227.505 158.825 227.482 158.825 227.454 158.825C227.173 158.825 226.926 158.613 226.886 158.332L226.875 158.338ZM-89.3876 158.309C-89.6743 158.269 -89.8749 158.028 -89.8749 157.741C-89.8749 157.713 -89.8749 157.684 -89.8692 157.655C-89.4736 155.024 -89.0035 152.375 -88.4703 149.766C-88.4072 149.462 -88.1033 149.256 -87.7937 149.319C-87.53 149.376 -87.3351 149.611 -87.3351 149.881C-87.3351 149.915 -87.3408 149.955 -87.3465 149.996C-87.874 152.581 -88.3384 155.219 -88.7397 157.827C-88.7798 158.108 -89.0207 158.315 -89.3016 158.315C-89.3303 158.315 -89.3589 158.315 -89.3876 158.315V158.309ZM223.756 142.743C223.113 140.18 222.391 137.606 221.617 135.083C221.6 135.026 221.588 134.968 221.588 134.911C221.588 134.659 221.755 134.441 221.995 134.366C222.294 134.275 222.62 134.452 222.712 134.745C223.498 137.308 224.226 139.905 224.868 142.462C224.879 142.514 224.885 142.559 224.885 142.605C224.885 142.869 224.707 143.093 224.455 143.161C224.409 143.173 224.358 143.179 224.312 143.179C224.048 143.179 223.824 143.001 223.756 142.743ZM-86.2687 142.657C-86.5209 142.594 -86.6987 142.364 -86.6987 142.101C-86.6987 142.055 -86.6929 142.009 -86.6815 141.969V141.946C-86.0164 139.377 -85.2825 136.786 -84.4971 134.252C-84.4053 133.954 -84.0785 133.782 -83.7804 133.873C-83.5396 133.948 -83.379 134.166 -83.379 134.418C-83.379 134.475 -83.3791 134.533 -83.402 134.59C-84.1817 137.107 -84.9156 139.681 -85.5692 142.244C-85.6322 142.496 -85.8616 142.674 -86.1253 142.674C-86.1712 142.674 -86.2228 142.668 -86.2687 142.657ZM219.089 127.521C218.189 125.027 217.208 122.527 216.188 120.096C216.153 120.027 216.142 119.953 216.142 119.873C216.142 119.643 216.279 119.437 216.491 119.351C216.778 119.225 217.122 119.368 217.243 119.655C218.275 122.109 219.261 124.626 220.172 127.131C220.195 127.194 220.207 127.263 220.207 127.326C220.207 127.567 220.052 127.785 219.828 127.865C219.765 127.888 219.696 127.899 219.633 127.899C219.393 127.899 219.175 127.744 219.094 127.521H219.089ZM-81.5903 127.395C-81.8196 127.314 -81.9687 127.097 -81.9687 126.856C-81.9687 126.787 -81.9572 126.724 -81.9343 126.661C-81.0112 124.15 -80.025 121.65 -78.993 119.225C-78.8784 118.944 -78.5287 118.8 -78.242 118.921C-78.0299 119.013 -77.8922 119.219 -77.8922 119.448C-77.8922 119.529 -77.9095 119.603 -77.9381 119.672L-77.9496 119.689C-78.9758 122.114 -79.9505 124.591 -80.8564 127.056C-80.9366 127.28 -81.1545 127.429 -81.3953 127.429C-81.4641 127.429 -81.5272 127.418 -81.5903 127.395ZM212.96 112.924V112.947L212.908 112.832C211.767 110.464 210.546 108.079 209.273 105.746C209.227 105.66 209.204 105.568 209.204 105.47C209.204 105.258 209.319 105.069 209.503 104.966C209.772 104.823 210.133 104.926 210.282 105.195C211.549 107.534 212.782 109.937 213.94 112.339C213.975 112.414 213.997 112.499 213.997 112.585C213.997 112.803 213.866 113.01 213.671 113.102C213.59 113.142 213.51 113.159 213.424 113.159C213.241 113.159 213.069 113.067 212.96 112.924ZM-75.4212 112.712C-75.6219 112.614 -75.748 112.413 -75.748 112.19C-75.748 112.104 -75.7251 112.024 -75.6907 111.943C-74.5325 109.558 -73.2999 107.162 -72.0213 104.834C-71.878 104.57 -71.5168 104.461 -71.2416 104.605C-71.0581 104.708 -70.9435 104.903 -70.9435 105.115C-70.9435 105.207 -70.9721 105.304 -71.018 105.384C-72.2793 107.689 -73.5063 110.063 -74.6587 112.448C-74.7561 112.643 -74.9511 112.769 -75.1747 112.769C-75.2607 112.769 -75.3467 112.746 -75.4212 112.712ZM205.289 98.8484C203.913 96.5952 202.462 94.342 200.971 92.1576C200.903 92.0602 200.868 91.9512 200.868 91.8366C200.868 91.6474 200.96 91.4696 201.12 91.3607C201.373 91.1887 201.745 91.2575 201.917 91.5098C203.425 93.7286 204.893 95.9932 206.269 98.2464C206.326 98.3382 206.355 98.4414 206.355 98.5446C206.355 98.7452 206.252 98.9287 206.08 99.0376C205.988 99.0892 205.885 99.1236 205.782 99.1236C205.581 99.1236 205.397 99.0204 205.289 98.8484ZM-67.813 98.7051C-67.985 98.5962 -68.0882 98.4127 -68.0882 98.212C-68.0882 98.1088 -68.0596 98.0056 -68.0023 97.9139C-66.6263 95.6779 -65.1642 93.419 -63.6449 91.2002C-63.4729 90.9479 -63.1002 90.8791 -62.848 91.0511C-62.6874 91.16 -62.5957 91.3378 -62.5957 91.5327C-62.5957 91.6474 -62.6359 91.7563 -62.6989 91.848L-62.7104 91.8652C-64.1953 94.0324 -65.6459 96.2742 -67.0276 98.5159C-67.1308 98.6879 -67.3142 98.7911 -67.5149 98.7911C-67.6181 98.7911 -67.727 98.7624 -67.813 98.7051ZM196.373 85.7535V85.765L196.322 85.6962C194.733 83.5978 193.065 81.4994 191.362 79.4698C191.276 79.3666 191.23 79.2404 191.225 79.1086C191.225 78.9366 191.299 78.776 191.431 78.6614C191.666 78.4664 192.045 78.5008 192.239 78.7359C193.948 80.7712 195.628 82.8811 197.239 85.0024C197.313 85.0999 197.354 85.2203 197.354 85.3464C197.354 85.5299 197.273 85.6962 197.124 85.8051C197.027 85.8796 196.906 85.9198 196.78 85.9198C196.625 85.9198 196.482 85.8624 196.373 85.7535ZM-58.8461 85.5184C-58.9894 85.4038 -59.0755 85.2375 -59.0755 85.054C-59.0755 84.9279 -59.0296 84.8132 -58.9551 84.7158C-57.3497 82.6002 -55.6641 80.496 -53.9499 78.4607C-53.7549 78.2256 -53.3708 78.197 -53.1415 78.3919C-53.0096 78.5066 -52.935 78.6671 -52.9408 78.8391C-52.9408 78.971 -52.9867 79.1028 -53.0727 79.2003L-53.1185 79.2519C-54.8041 81.2586 -56.4611 83.3283 -58.0435 85.4095C-58.1524 85.5528 -58.3187 85.6331 -58.5021 85.6331C-58.6283 85.6331 -58.7486 85.593 -58.8461 85.5184ZM186.099 73.5014C184.31 71.575 182.447 69.66 180.549 67.8024C180.435 67.6935 180.371 67.5444 180.377 67.3839C180.377 67.2348 180.435 67.0972 180.538 66.994C180.75 66.7704 181.128 66.7704 181.346 66.9826C183.273 68.8631 185.159 70.7952 186.942 72.7216C187.039 72.8248 187.091 72.9624 187.091 73.1058C187.091 73.2663 187.028 73.4211 186.907 73.53C186.804 73.6332 186.667 73.6848 186.518 73.6848C186.369 73.6848 186.208 73.616 186.099 73.5014ZM-48.6121 73.2778C-48.7268 73.1631 -48.7956 73.0083 -48.7956 72.8478C-48.7956 72.7044 -48.7382 72.5726 -48.6408 72.4636C-46.8348 70.5258 -44.9543 68.5994 -43.0393 66.736C-42.8157 66.5239 -42.4431 66.5296 -42.2252 66.7475C-42.122 66.8564 -42.0646 66.994 -42.0646 67.1431C-42.0646 67.2922 -42.122 67.4412 -42.2309 67.5502V67.5616C-44.1229 69.3963 -45.9977 71.3055 -47.8037 73.2491C-47.9069 73.3638 -48.0617 73.4268 -48.2223 73.4268C-48.3656 73.4268 -48.5032 73.3752 -48.6121 73.2778ZM174.713 62.3844C172.74 60.63 170.694 58.91 168.635 57.2646C168.498 57.1556 168.423 56.9894 168.423 56.8116C168.423 56.6855 168.469 56.5594 168.549 56.4619C168.739 56.2268 169.105 56.181 169.346 56.3644C169.346 56.3644 169.358 56.3816 169.363 56.3874C171.439 58.05 173.491 59.7758 175.469 61.5302C175.596 61.6391 175.664 61.7939 175.664 61.9659C175.664 62.1035 175.613 62.2354 175.521 62.3386C175.412 62.459 175.257 62.5278 175.091 62.5278C174.953 62.5278 174.816 62.4819 174.713 62.3844ZM-37.2085 62.1035C-37.3003 62.0003 -37.3519 61.8684 -37.3519 61.7308C-37.3519 61.5646 -37.283 61.404 -37.1569 61.2951C-35.1732 59.5464 -33.1034 57.815 -31.0108 56.1466C-30.7757 55.9574 -30.3973 55.9975 -30.2081 56.2383C-30.1279 56.3415 -30.082 56.4619 -30.082 56.5938C-30.082 56.7715 -30.1623 56.932 -30.2999 57.0467C-32.3524 58.675 -34.4049 60.395 -36.4001 62.1551C-36.5033 62.2468 -36.6409 62.2984 -36.7785 62.2984C-36.9448 62.2984 -37.0996 62.2296 -37.2085 62.1035ZM162.306 52.4543C160.19 50.9292 157.994 49.4214 155.77 47.9823C155.77 47.9766 155.758 47.9708 155.747 47.9651L155.667 47.9135H155.684C155.558 47.8046 155.489 47.6498 155.489 47.4835C155.489 47.3746 155.523 47.2656 155.581 47.1739C155.747 46.9159 156.114 46.8356 156.372 47.0019C158.608 48.4524 160.827 49.9718 162.977 51.5255C163.131 51.6344 163.217 51.8064 163.217 51.9956C163.217 52.116 163.177 52.2307 163.108 52.3282C162.999 52.4772 162.827 52.5632 162.644 52.5632C162.524 52.5632 162.409 52.5288 162.306 52.4543ZM-24.75 52.1103C-24.8188 52.0128 -24.8589 51.8982 -24.8589 51.7778C-24.8589 51.623 -24.7959 51.4682 -24.6812 51.3592H-24.6927L-24.6181 51.3076C-24.6181 51.3076 -24.6067 51.3076 -24.5952 51.2962C-22.4509 49.7539 -20.2264 48.2403 -17.9904 46.7955C-17.7324 46.6292 -17.3655 46.7095 -17.1992 46.9675C-17.1419 47.0592 -17.1075 47.1682 -17.1075 47.2771C-17.1075 47.472 -17.2049 47.6555 -17.3712 47.7587C-19.5842 49.1863 -21.7916 50.6884 -23.9244 52.225L-23.9588 52.2479C-24.0563 52.3167 -24.1652 52.3511 -24.2856 52.3511C-24.4691 52.3511 -24.641 52.2594 -24.75 52.1103ZM148.976 43.8084C146.723 42.5012 144.389 41.2227 142.044 40.013C142.033 40.0072 142.021 40.0015 142.01 39.9958H141.993C141.809 39.8868 141.7 39.6976 141.7 39.4855C141.7 39.3938 141.717 39.3078 141.763 39.2275C141.901 38.9523 142.262 38.8376 142.531 38.9752C144.876 40.185 147.239 41.475 149.555 42.8166C149.727 42.9198 149.841 43.109 149.836 43.3154C149.836 43.4186 149.813 43.516 149.761 43.602C149.658 43.7798 149.469 43.8887 149.262 43.8887C149.165 43.8887 149.067 43.86 148.976 43.8084ZM-11.3569 43.4014C-11.4085 43.3154 -11.4315 43.2122 -11.4315 43.1147C-11.4315 42.9083 -11.3225 42.7191 -11.1448 42.6159C-8.83999 41.2915 -6.47212 40.0015 -4.09852 38.786C-3.82332 38.6427 -3.46785 38.7574 -3.32451 39.0326C-3.28438 39.1186 -3.26146 39.2046 -3.26146 39.2963C-3.26146 39.5142 -3.38185 39.7091 -3.57678 39.8066C-5.94465 41.022 -8.30106 42.3006 -10.5715 43.6135C-10.6632 43.6594 -10.7607 43.688 -10.8581 43.688C-11.0645 43.688 -11.2537 43.5791 -11.3569 43.4014ZM134.86 36.5386C132.458 35.4492 129.998 34.4058 127.55 33.4426C127.332 33.3566 127.189 33.1444 127.189 32.9094C127.189 32.8348 127.201 32.766 127.229 32.6972C127.344 32.4106 127.682 32.2615 127.975 32.3762C130.446 33.3508 132.922 34.4 135.336 35.4951C135.543 35.5868 135.674 35.7932 135.669 36.0168C135.669 36.0971 135.651 36.1774 135.623 36.2519C135.525 36.4583 135.325 36.5902 135.095 36.5902C135.015 36.5902 134.935 36.573 134.86 36.5386ZM2.84454 36.0684C2.81587 35.9882 2.79868 35.9136 2.79868 35.8276C2.79868 35.604 2.93055 35.3976 3.13695 35.3059C5.57361 34.2108 8.06188 33.1674 10.5387 32.1984C10.8253 32.0838 11.1694 32.2328 11.2783 32.5252C11.307 32.594 11.3184 32.6628 11.3184 32.7316C11.3184 32.9724 11.1751 33.1788 10.9572 33.2648H10.9458C8.48616 34.2338 6.01508 35.2715 3.60708 36.3551C3.53255 36.3895 3.45228 36.4067 3.37201 36.4067C3.14841 36.4067 2.94201 36.2748 2.84454 36.0684ZM120.08 30.7078C117.597 29.8707 115.046 29.0795 112.5 28.3628C112.495 28.3628 112.489 28.3628 112.483 28.3628L112.3 28.3055H112.351C112.179 28.2023 112.065 28.0188 112.065 27.8124C112.065 27.7608 112.076 27.7035 112.087 27.6576C112.173 27.3595 112.495 27.176 112.793 27.2563C115.338 27.9787 117.913 28.7756 120.447 29.6299C120.682 29.7102 120.837 29.928 120.837 30.1688C120.837 30.2319 120.831 30.295 120.808 30.3523C120.728 30.5874 120.51 30.7479 120.263 30.7479C120.206 30.7479 120.143 30.7364 120.08 30.7135V30.7078ZM17.7225 30.1918C17.7053 30.1287 17.6939 30.0714 17.6939 30.0083C17.6939 29.7618 17.8544 29.5439 18.0837 29.4636C20.6064 28.6208 23.1864 27.8354 25.7492 27.1187C26.0473 27.0327 26.3684 27.2219 26.4544 27.5143C26.4659 27.5659 26.4774 27.6232 26.4716 27.6748C26.4716 27.9271 26.2996 28.1564 26.0531 28.2252C23.496 28.9362 20.9332 29.7216 18.4507 30.553C18.3934 30.5702 18.3303 30.5816 18.2672 30.5816C18.0207 30.5816 17.8028 30.4268 17.7225 30.1918ZM104.777 26.3906L104.68 26.3676C102.152 25.7886 99.5602 25.2668 96.9802 24.8082C96.705 24.7623 96.51 24.5215 96.51 24.2463C96.51 24.2119 96.51 24.1775 96.51 24.1431C96.5674 23.8392 96.854 23.6271 97.1751 23.6787H97.1923C99.8124 24.1488 102.45 24.682 105.024 25.2726C105.288 25.3299 105.471 25.5592 105.471 25.8287C105.471 25.8688 105.465 25.9147 105.46 25.9548C105.397 26.2186 105.167 26.402 104.898 26.402C104.858 26.402 104.812 26.402 104.772 26.3906H104.777ZM33.0822 25.8459C33.0822 25.8058 33.0707 25.7599 33.0707 25.714C33.0707 25.4446 33.2542 25.221 33.5179 25.1579C36.1151 24.5731 38.7581 24.0456 41.3725 23.5927C41.6936 23.5354 41.986 23.7532 42.0376 24.0628C42.0433 24.0972 42.0434 24.1316 42.0434 24.1603C42.0434 24.4412 41.8427 24.6763 41.5675 24.7222C38.976 25.1751 36.3502 25.6968 33.7702 26.2759C33.73 26.2874 33.6842 26.2931 33.644 26.2931C33.3746 26.2931 33.1395 26.1039 33.0822 25.8459ZM89.114 23.6214C86.5054 23.2946 83.8508 23.0251 81.2364 22.8302C81.2249 22.8302 81.2135 22.8302 81.202 22.8302H81.1791C80.8924 22.7958 80.6746 22.5492 80.6688 22.2626C80.6688 22.2454 80.6688 22.2339 80.6688 22.2167C80.6918 21.9071 80.967 21.6663 81.2823 21.6892C83.954 21.8899 86.6315 22.1594 89.2516 22.4919C89.5383 22.5263 89.7562 22.7671 89.7562 23.0538C89.7562 23.0824 89.7562 23.1054 89.7562 23.1283C89.7218 23.415 89.4752 23.6328 89.1886 23.6328C89.1656 23.6328 89.137 23.6271 89.114 23.6271V23.6214ZM48.7972 23.0595V22.985C48.7972 22.6983 49.0151 22.4575 49.296 22.4231C51.9219 22.102 54.5993 21.8383 57.2653 21.6491C57.5864 21.6262 57.8559 21.867 57.8788 22.1766V22.2224C57.8788 22.5148 57.6437 22.7671 57.3513 22.79C54.714 22.9792 52.048 23.2372 49.4336 23.5583C49.4107 23.564 49.3877 23.564 49.3648 23.564C49.0724 23.564 48.8316 23.3462 48.7915 23.0595H48.7972ZM65.3035 22.4116H65.2863C64.971 22.4116 64.7244 22.1651 64.713 21.8498V21.8383C64.713 21.523 64.9595 21.2707 65.2748 21.265C67.7917 21.2076 70.5896 21.2076 73.29 21.2764C73.5939 21.2879 73.8462 21.5402 73.8462 21.8498V21.867C73.8404 22.1708 73.5824 22.4231 73.2728 22.4231H73.2556C70.6527 22.3543 67.9924 22.3486 65.3035 22.4116Z" fill="#D1D1D1"/>
<path d="M68.3766 309.147C68.0612 309.147 67.8032 308.889 67.8032 308.574C67.8032 308.259 68.0612 308.001 68.3766 308.001H69.0302C71.1056 308.001 73.204 307.949 75.2623 307.851C75.5776 307.823 75.8471 308.081 75.8643 308.396C75.8815 308.711 75.635 308.981 75.3196 308.998C73.2442 309.101 71.1228 309.153 69.0302 309.153H68.3766V309.147ZM77.0224 308.327C76.9995 308.012 77.2403 307.737 77.5556 307.72C80.2216 307.542 82.9106 307.278 85.5479 306.928C85.8575 306.888 86.1499 307.106 86.19 307.421C86.2302 307.737 86.0123 308.023 85.697 308.064C83.0367 308.413 80.3248 308.683 77.6302 308.861C77.6187 308.861 77.6072 308.861 77.59 308.861C77.2919 308.861 77.0396 308.631 77.0167 308.327H77.0224ZM60.2754 308.849C59.5014 308.797 58.7331 308.734 57.9648 308.671C57.6495 308.643 57.4144 308.367 57.4431 308.052C57.4718 307.737 57.747 307.496 58.0623 307.53C58.8248 307.593 59.5874 307.657 60.3499 307.708C60.6652 307.731 60.906 308.001 60.8831 308.316C60.8602 308.62 60.6079 308.849 60.3098 308.849C60.2983 308.849 60.2811 308.849 60.2696 308.849H60.2754ZM51.0619 307.886C48.3959 307.507 45.707 307.043 43.0754 306.498C42.7658 306.435 42.5651 306.131 42.6282 305.822C42.6912 305.512 43.0008 305.317 43.3047 305.375C45.9076 305.914 48.5736 306.378 51.2167 306.751C51.532 306.797 51.7499 307.083 51.704 307.398C51.6639 307.685 51.4174 307.892 51.1364 307.892C51.1078 307.892 51.0848 307.892 51.0562 307.892L51.0619 307.886ZM91.8832 306.516C91.8259 306.206 92.0323 305.908 92.3419 305.845C93.093 305.701 93.844 305.558 94.5951 305.403C94.9047 305.34 95.2086 305.541 95.2716 305.851C95.3347 306.16 95.1341 306.464 94.8244 306.527C94.0676 306.682 93.3108 306.831 92.554 306.974C92.5196 306.98 92.4852 306.986 92.4508 306.986C92.1814 306.986 91.9406 306.796 91.889 306.516H91.8832ZM40.8107 306.005C38.5575 305.495 36.2928 304.916 34.0798 304.285C33.7759 304.199 33.5982 303.878 33.6842 303.574C33.7702 303.27 34.0855 303.093 34.3951 303.179C36.591 303.804 38.8327 304.377 41.063 304.882C41.3726 304.95 41.5675 305.26 41.493 305.57C41.4299 305.833 41.1948 306.017 40.9368 306.017C40.8967 306.017 40.8508 306.017 40.8107 306V306.005ZM101.997 304.234C101.911 303.93 102.094 303.614 102.398 303.528C104.6 302.926 106.813 302.256 108.986 301.528C109.284 301.424 109.611 301.591 109.714 301.889C109.811 302.193 109.651 302.514 109.353 302.617C107.163 303.351 104.927 304.027 102.708 304.635C102.656 304.647 102.605 304.658 102.559 304.658C102.306 304.658 102.077 304.492 102.008 304.234H101.997ZM110.815 301.51C110.711 301.212 110.866 300.885 111.164 300.776C113.676 299.888 116.198 298.896 118.652 297.847C118.945 297.721 119.283 297.858 119.403 298.151C119.529 298.443 119.392 298.781 119.099 298.902C116.623 299.968 114.077 300.96 111.543 301.86C111.48 301.883 111.417 301.895 111.348 301.895C111.113 301.895 110.889 301.745 110.809 301.51H110.815ZM26.357 301.814C25.6288 301.556 24.9064 301.287 24.184 301.017C23.8859 300.903 23.7368 300.576 23.8515 300.278C23.9604 299.98 24.293 299.83 24.5911 299.945C25.3078 300.215 26.0244 300.478 26.7468 300.736C27.045 300.845 27.1998 301.172 27.0966 301.47C27.0106 301.705 26.7927 301.849 26.5576 301.849C26.4946 301.849 26.4315 301.837 26.3627 301.814H26.357ZM17.7627 298.397C15.3031 297.314 12.8492 296.132 10.4642 294.894C10.1832 294.751 10.0743 294.401 10.2176 294.12C10.3667 293.839 10.7107 293.73 10.9916 293.874C13.3538 295.101 15.7847 296.27 18.2271 297.342C18.5195 297.468 18.6456 297.807 18.5195 298.099C18.422 298.311 18.2156 298.443 17.992 298.443C17.9175 298.443 17.8372 298.426 17.7627 298.397ZM124.655 295.731C124.512 295.45 124.632 295.1 124.913 294.963C125.601 294.625 126.283 294.275 126.966 293.925C127.246 293.776 127.59 293.891 127.74 294.172C127.883 294.453 127.774 294.797 127.493 294.946C126.805 295.301 126.117 295.651 125.423 295.995C125.343 296.035 125.257 296.052 125.171 296.052C124.959 296.052 124.758 295.932 124.655 295.731ZM8.42309 293.816C6.39923 292.715 4.37536 291.546 2.41456 290.342C2.1451 290.176 2.0591 289.82 2.22537 289.551C2.39164 289.281 2.7471 289.195 3.01656 289.361C4.96016 290.56 6.9611 291.718 8.96777 292.807C9.2487 292.956 9.3519 293.306 9.1971 293.587C9.0939 293.776 8.89896 293.885 8.69256 293.885C8.60083 293.885 8.50911 293.862 8.41737 293.816H8.42309ZM133.782 290.783C133.616 290.514 133.708 290.158 133.977 289.998C135.932 288.822 137.882 287.573 139.78 286.283C140.043 286.105 140.399 286.174 140.576 286.437C140.754 286.701 140.685 287.057 140.427 287.234C138.512 288.536 136.546 289.797 134.574 290.984C134.482 291.041 134.379 291.064 134.276 291.064C134.081 291.064 133.891 290.967 133.782 290.789V290.783ZM141.534 285.772C141.35 285.514 141.413 285.159 141.671 284.975C143.85 283.433 146.006 281.805 148.081 280.131C148.328 279.93 148.689 279.97 148.89 280.217C149.09 280.463 149.05 280.824 148.804 281.025C146.705 282.716 144.532 284.356 142.331 285.91C142.233 285.979 142.113 286.013 141.998 286.013C141.821 286.013 141.643 285.927 141.528 285.772H141.534ZM-4.3393 285.881C-4.96997 285.434 -5.5949 284.987 -6.2141 284.528C-6.4721 284.339 -6.5237 283.984 -6.3345 283.726C-6.1453 283.468 -5.78984 283.416 -5.53184 283.605C-4.91837 284.058 -4.29917 284.505 -3.67424 284.947C-3.41624 285.13 -3.35317 285.486 -3.53663 285.744C-3.64557 285.904 -3.8233 285.984 -4.00677 285.984C-4.12144 285.984 -4.2361 285.95 -4.3393 285.881ZM-11.6952 280.268C-13.7706 278.56 -15.8232 276.765 -17.7897 274.925C-18.019 274.707 -18.0305 274.346 -17.8184 274.116C-17.6005 273.887 -17.2393 273.87 -17.01 274.088C-15.0606 275.905 -13.031 277.688 -10.9728 279.38C-10.7262 279.58 -10.6918 279.942 -10.8925 280.188C-11.0072 280.326 -11.1677 280.4 -11.334 280.4C-11.4601 280.4 -11.592 280.36 -11.6952 280.268ZM153.287 276.473C153.075 276.238 153.092 275.877 153.327 275.664C153.895 275.154 154.463 274.638 155.019 274.111C155.248 273.893 155.615 273.904 155.827 274.139C156.045 274.369 156.028 274.736 155.798 274.948C155.237 275.475 154.663 275.997 154.09 276.513C153.981 276.61 153.843 276.662 153.706 276.662C153.551 276.662 153.39 276.599 153.281 276.473H153.287ZM-19.4638 273.331C-21.1208 271.726 -22.7548 270.057 -24.32 268.366C-24.5378 268.131 -24.5206 267.77 -24.2913 267.558C-24.0562 267.34 -23.695 267.357 -23.4829 267.586C-21.9292 269.26 -20.3124 270.917 -18.6669 272.511C-18.4376 272.729 -18.4318 273.096 -18.6554 273.32C-18.7701 273.434 -18.9192 273.492 -19.0682 273.492C-19.2173 273.492 -19.3549 273.44 -19.4696 273.331H-19.4638ZM160.741 269.26C160.511 269.043 160.5 268.681 160.718 268.452C162.283 266.795 163.825 265.064 165.304 263.321C165.511 263.08 165.872 263.051 166.113 263.252C166.354 263.458 166.382 263.819 166.182 264.06C164.691 265.82 163.131 267.563 161.555 269.237C161.44 269.358 161.291 269.415 161.136 269.415C160.993 269.415 160.855 269.364 160.741 269.26ZM166.852 262.357C166.606 262.157 166.571 261.796 166.772 261.549C168.458 259.485 170.092 257.341 171.645 255.168C171.829 254.91 172.19 254.852 172.448 255.036C172.706 255.219 172.763 255.581 172.58 255.833C171.015 258.023 169.358 260.19 167.661 262.271C167.546 262.409 167.38 262.484 167.213 262.484C167.087 262.484 166.955 262.443 166.852 262.357ZM-29.6405 262.243C-30.1278 261.646 -30.6094 261.039 -31.091 260.431C-31.286 260.179 -31.2401 259.823 -30.9936 259.628C-30.747 259.433 -30.3858 259.479 -30.1909 259.726C-29.7208 260.328 -29.2392 260.924 -28.7576 261.52C-28.5569 261.767 -28.5913 262.128 -28.8378 262.329C-28.9468 262.415 -29.0729 262.461 -29.199 262.461C-29.3653 262.461 -29.5316 262.386 -29.6462 262.248L-29.6405 262.243ZM-35.2305 254.853C-36.7785 252.645 -38.2692 250.363 -39.6681 248.064C-39.8344 247.795 -39.7484 247.439 -39.4789 247.279C-39.2094 247.112 -38.854 247.199 -38.6934 247.468C-37.306 249.744 -35.8268 252.009 -34.296 254.193C-34.1125 254.451 -34.1756 254.812 -34.4393 254.99C-34.5368 255.059 -34.6572 255.093 -34.7661 255.093C-34.9496 255.093 -35.1216 255.007 -35.2362 254.847L-35.2305 254.853ZM175.664 250.26C175.395 250.094 175.32 249.738 175.487 249.469C175.894 248.827 176.301 248.179 176.696 247.525C176.863 247.256 177.212 247.17 177.488 247.336C177.757 247.502 177.843 247.852 177.677 248.122C177.275 248.781 176.868 249.434 176.456 250.082C176.347 250.254 176.163 250.346 175.968 250.346C175.865 250.346 175.756 250.317 175.659 250.254L175.664 250.26ZM-40.8606 246.075C-42.0302 244.08 -43.154 242.027 -44.2032 239.98C-44.3465 239.699 -44.2376 239.35 -43.9566 239.206C-43.67 239.063 -43.326 239.172 -43.1826 239.453C-42.1392 241.482 -41.0269 243.518 -39.8688 245.496C-39.7082 245.771 -39.8 246.121 -40.0752 246.281C-40.1669 246.333 -40.2644 246.361 -40.3618 246.361C-40.5568 246.361 -40.7517 246.258 -40.8549 246.075H-40.8606ZM180.899 241.322C180.618 241.173 180.509 240.829 180.658 240.548C181.719 238.53 182.739 236.454 183.691 234.379C183.823 234.092 184.161 233.966 184.454 234.098C184.74 234.23 184.866 234.568 184.735 234.855C183.777 236.947 182.745 239.04 181.673 241.081C181.57 241.276 181.369 241.385 181.163 241.385C181.071 241.385 180.979 241.362 180.899 241.316V241.322ZM184.918 233.043C184.626 232.917 184.494 232.578 184.62 232.286C185.681 229.849 186.684 227.344 187.59 224.838C187.699 224.54 188.025 224.386 188.324 224.494C188.622 224.603 188.777 224.93 188.668 225.228C187.75 227.757 186.747 230.285 185.675 232.745C185.583 232.963 185.371 233.089 185.147 233.089C185.073 233.089 184.993 233.072 184.918 233.043ZM-47.6833 232.642C-47.9929 231.931 -48.2968 231.22 -48.5892 230.503C-48.7096 230.211 -48.572 229.878 -48.2796 229.758C-47.9872 229.637 -47.6546 229.775 -47.5285 230.067C-47.2361 230.778 -46.9322 231.483 -46.6284 232.189C-46.5022 232.481 -46.6341 232.819 -46.9265 232.945C-47.001 232.98 -47.0756 232.991 -47.1558 232.991C-47.3794 232.991 -47.5858 232.865 -47.6833 232.647V232.642ZM-51.0717 223.996C-51.9604 221.462 -52.7802 218.859 -53.5026 216.267C-53.5886 215.963 -53.4109 215.648 -53.107 215.562C-52.8032 215.476 -52.4878 215.654 -52.4018 215.958C-51.6852 218.526 -50.871 221.106 -49.9938 223.617C-49.8906 223.915 -50.0454 224.242 -50.3436 224.345C-50.4066 224.368 -50.4697 224.38 -50.5328 224.38C-50.7678 224.38 -50.9914 224.231 -51.0717 223.996ZM190.13 219.019C189.826 218.927 189.654 218.606 189.746 218.303C189.963 217.569 190.181 216.835 190.388 216.095C190.474 215.791 190.789 215.614 191.093 215.7C191.397 215.786 191.574 216.101 191.488 216.405C191.282 217.15 191.064 217.89 190.841 218.629C190.766 218.876 190.537 219.036 190.29 219.036C190.233 219.036 190.181 219.031 190.124 219.013L190.13 219.019ZM-54.1104 214.031C-54.6894 211.807 -55.2169 209.525 -55.6698 207.26C-55.7329 206.95 -55.5322 206.647 -55.2226 206.584C-54.913 206.52 -54.6092 206.721 -54.5461 207.031C-54.0932 209.278 -53.5714 211.531 -52.9981 213.739C-52.9178 214.048 -53.1013 214.358 -53.4109 214.438C-53.4625 214.45 -53.5084 214.455 -53.5542 214.455C-53.8065 214.455 -54.0416 214.283 -54.1104 214.025V214.031ZM192.744 208.986C192.434 208.917 192.24 208.613 192.303 208.304C192.778 206.073 193.197 203.791 193.547 201.532C193.598 201.223 193.891 201.005 194.2 201.057C194.516 201.108 194.728 201.401 194.676 201.71C194.321 203.992 193.896 206.291 193.421 208.544C193.363 208.814 193.128 208.997 192.859 208.997C192.819 208.997 192.778 208.997 192.738 208.986H192.744ZM194.372 199.91C194.057 199.87 193.839 199.577 193.885 199.262C194.246 196.625 194.527 193.936 194.722 191.276C194.745 190.96 195.02 190.719 195.336 190.748C195.651 190.771 195.886 191.046 195.863 191.362C195.668 194.045 195.381 196.757 195.014 199.417C194.974 199.704 194.728 199.916 194.447 199.916C194.424 199.916 194.395 199.916 194.367 199.916L194.372 199.91ZM-57.0229 199.274C-57.1261 198.511 -57.2236 197.743 -57.3153 196.974C-57.3497 196.659 -57.1261 196.378 -56.8108 196.338C-56.4954 196.298 -56.2088 196.527 -56.1744 196.843C-56.0826 197.605 -55.9852 198.362 -55.8877 199.119C-55.8476 199.434 -56.0654 199.721 -56.3808 199.761C-56.4094 199.761 -56.4324 199.761 -56.461 199.761C-56.742 199.761 -56.9885 199.549 -57.0286 199.262L-57.0229 199.274ZM-57.9402 190.06C-58.1065 187.383 -58.1925 184.654 -58.1925 181.959V181.666C-58.1925 181.351 -57.9345 181.093 -57.6192 181.093C-57.3038 181.093 -57.0458 181.351 -57.0458 181.666V181.959C-57.0458 184.631 -56.9598 187.331 -56.7936 189.986C-56.7764 190.301 -57.0114 190.576 -57.3325 190.593C-57.344 190.593 -57.3554 190.593 -57.3669 190.593C-57.665 190.593 -57.9173 190.358 -57.9402 190.054V190.06ZM195.599 184.986C195.284 184.98 195.032 184.717 195.037 184.401C195.055 183.639 195.06 182.87 195.06 182.108C195.06 181.793 195.318 181.535 195.634 181.535C195.949 181.535 196.207 181.793 196.207 182.108C196.207 182.882 196.196 183.656 196.184 184.424C196.178 184.74 195.92 184.986 195.611 184.986H195.599ZM-57.602 179.935C-57.9173 179.929 -58.1696 179.666 -58.1638 179.35C-58.118 177.045 -58.009 174.712 -57.837 172.413C-57.8141 172.098 -57.5446 171.857 -57.2236 171.885C-56.9082 171.908 -56.6732 172.184 -56.6961 172.499C-56.8624 174.775 -56.9713 177.091 -57.0172 179.379C-57.0229 179.694 -57.2809 179.941 -57.5905 179.941H-57.602V179.935ZM194.82 174.081C194.676 171.799 194.476 169.495 194.212 167.224C194.177 166.909 194.401 166.628 194.716 166.588C195.032 166.548 195.313 166.777 195.353 167.092C195.616 169.38 195.829 171.708 195.966 174.012C195.983 174.328 195.748 174.603 195.427 174.62C195.416 174.62 195.404 174.62 195.393 174.62C195.095 174.62 194.842 174.385 194.82 174.081ZM193.925 164.948C193.57 162.305 193.122 159.639 192.601 157.03C192.538 156.721 192.738 156.417 193.048 156.354C193.357 156.291 193.661 156.491 193.724 156.801C194.252 159.438 194.705 162.127 195.066 164.793C195.106 165.109 194.888 165.395 194.573 165.435C194.55 165.435 194.521 165.435 194.498 165.435C194.218 165.435 193.971 165.229 193.931 164.937L193.925 164.948ZM-56.4897 165C-56.805 164.954 -57.0229 164.667 -56.977 164.352C-56.8738 163.584 -56.7592 162.821 -56.6388 162.058C-56.5872 161.743 -56.2948 161.531 -55.9852 161.583C-55.6698 161.634 -55.4577 161.927 -55.5093 162.236C-55.6297 162.993 -55.7386 163.75 -55.8476 164.507C-55.8877 164.793 -56.1342 165 -56.4152 165C-56.4438 165 -56.4668 165 -56.4954 165H-56.4897ZM-54.936 155.912C-55.2456 155.844 -55.4405 155.54 -55.3774 155.23C-54.8156 152.598 -54.1562 149.95 -53.4281 147.364C-53.3421 147.06 -53.0268 146.882 -52.7229 146.968C-52.419 147.054 -52.2413 147.37 -52.3273 147.674C-53.0497 150.236 -53.6976 152.856 -54.2594 155.471C-54.3168 155.74 -54.5518 155.924 -54.8213 155.924C-54.8614 155.924 -54.9016 155.924 -54.9417 155.912H-54.936ZM191.058 150.317C190.869 149.577 190.669 148.837 190.462 148.098C190.376 147.794 190.554 147.479 190.863 147.393C191.167 147.307 191.483 147.484 191.569 147.794C191.775 148.539 191.976 149.285 192.171 150.03C192.251 150.34 192.067 150.649 191.758 150.729C191.712 150.741 191.66 150.747 191.615 150.747C191.357 150.747 191.127 150.575 191.058 150.317ZM-52.3961 145.856C-52.7 145.764 -52.872 145.443 -52.7802 145.139C-52.1152 142.932 -51.3756 140.713 -50.5901 138.546C-50.4812 138.248 -50.1544 138.093 -49.8562 138.202C-49.5581 138.311 -49.4033 138.638 -49.5122 138.936C-50.292 141.086 -51.0201 143.282 -51.6852 145.472C-51.7597 145.718 -51.989 145.879 -52.2356 145.879C-52.2929 145.879 -52.3445 145.873 -52.4018 145.856H-52.3961ZM188.06 140.438C187.309 138.277 186.483 136.109 185.612 133.988C185.491 133.696 185.629 133.363 185.921 133.237C186.214 133.117 186.546 133.254 186.672 133.547C187.55 135.685 188.387 137.875 189.143 140.054C189.247 140.352 189.092 140.679 188.788 140.782C188.725 140.805 188.662 140.816 188.599 140.816C188.364 140.816 188.14 140.667 188.06 140.432V140.438ZM184.712 131.872C183.651 129.424 182.493 126.976 181.277 124.603C181.134 124.322 181.243 123.978 181.524 123.829C181.805 123.685 182.149 123.794 182.298 124.075C183.525 126.472 184.689 128.943 185.761 131.414C185.887 131.706 185.755 132.044 185.463 132.171C185.388 132.205 185.314 132.216 185.233 132.216C185.01 132.216 184.803 132.09 184.706 131.872H184.712ZM-47.2934 131.792C-47.5858 131.666 -47.7177 131.328 -47.5916 131.035C-47.282 130.33 -46.9666 129.625 -46.6456 128.931C-46.5137 128.645 -46.1754 128.518 -45.883 128.65C-45.5964 128.782 -45.4702 129.126 -45.6021 129.413C-45.9174 130.107 -46.2328 130.8 -46.5366 131.5C-46.6284 131.718 -46.8405 131.844 -47.0641 131.844C-47.1386 131.844 -47.2189 131.827 -47.2934 131.798V131.792ZM-43.3374 123.485C-43.6184 123.336 -43.7273 122.992 -43.5782 122.711C-42.3284 120.337 -40.981 117.969 -39.5764 115.67C-39.4101 115.401 -39.0546 115.315 -38.7909 115.481C-38.5214 115.647 -38.4354 115.997 -38.6017 116.272C-39.9949 118.548 -41.3308 120.893 -42.5692 123.244C-42.6724 123.439 -42.873 123.548 -43.0794 123.548C-43.1712 123.548 -43.2629 123.525 -43.3489 123.479L-43.3374 123.485ZM177.969 118.554C177.585 117.889 177.19 117.235 176.794 116.576C176.628 116.306 176.714 115.951 176.983 115.785C177.253 115.618 177.608 115.704 177.769 115.98C178.17 116.639 178.566 117.304 178.955 117.975C179.116 118.25 179.024 118.6 178.749 118.76C178.657 118.812 178.56 118.841 178.462 118.841C178.267 118.841 178.072 118.737 177.969 118.554ZM-38.1774 114.506C-38.4469 114.334 -38.5214 113.984 -38.3552 113.715C-37.1168 111.771 -35.8038 109.834 -34.468 107.964C-34.2845 107.706 -33.9233 107.649 -33.671 107.833C-33.413 108.016 -33.3557 108.377 -33.5392 108.63C-34.8693 110.481 -36.165 112.402 -37.392 114.328C-37.5009 114.5 -37.6844 114.592 -37.8736 114.592C-37.9768 114.592 -38.0857 114.564 -38.1832 114.5L-38.1774 114.506ZM172.396 109.851C171.089 107.976 169.708 106.113 168.297 104.312C168.102 104.06 168.148 103.705 168.395 103.51C168.647 103.315 169.002 103.361 169.197 103.607C170.619 105.425 172.012 107.305 173.331 109.197C173.514 109.455 173.451 109.816 173.188 109.994C173.09 110.063 172.976 110.097 172.861 110.097C172.677 110.097 172.5 110.011 172.391 109.851H172.396ZM166.864 102.518C165.184 100.448 163.412 98.407 161.601 96.4462C161.383 96.2111 161.4 95.8499 161.635 95.6378C161.87 95.4199 162.231 95.4371 162.443 95.6722C164.267 97.6502 166.055 99.7085 167.752 101.795C167.953 102.042 167.913 102.403 167.672 102.604C167.563 102.69 167.437 102.73 167.311 102.73C167.145 102.73 166.978 102.661 166.864 102.518ZM-29.4628 102.34C-29.7093 102.139 -29.7437 101.778 -29.543 101.532C-29.0557 100.935 -28.5626 100.339 -28.0638 99.7543C-27.8574 99.5135 -27.4962 99.4849 -27.2554 99.6855C-27.0146 99.8919 -26.986 100.253 -27.1866 100.494C-27.6797 101.079 -28.1728 101.664 -28.6544 102.254C-28.769 102.392 -28.9353 102.466 -29.1016 102.466C-29.2277 102.466 -29.3596 102.426 -29.4628 102.34ZM-23.4084 95.3913C-23.6377 95.1734 -23.6492 94.8122 -23.4313 94.5829C-21.5852 92.6335 -19.653 90.7071 -17.6808 88.8725C-17.4514 88.6546 -17.0845 88.6718 -16.8724 88.9011C-16.6545 89.1305 -16.6717 89.4974 -16.901 89.7095C-18.8561 91.527 -20.771 93.4362 -22.6 95.3683C-22.7146 95.4887 -22.8637 95.5461 -23.0185 95.5461C-23.1618 95.5461 -23.2994 95.4945 -23.4141 95.3913H-23.4084ZM156.79 91.5213C156.24 90.9881 155.69 90.4606 155.128 89.9389C154.898 89.721 154.887 89.3598 155.099 89.1305C155.317 88.9011 155.678 88.8897 155.907 89.1018C156.469 89.6293 157.031 90.1625 157.581 90.7014C157.811 90.9193 157.817 91.2862 157.593 91.5098C157.478 91.6245 157.329 91.6818 157.18 91.6818C157.031 91.6818 156.894 91.6302 156.779 91.5213H156.79ZM-16.0124 88.1214C-16.2245 87.8863 -16.2016 87.5251 -15.9665 87.313C-14.2522 85.7707 -12.4692 84.2571 -10.6746 82.8123C-10.4281 82.6117 -10.0669 82.6518 -9.86624 82.8983C-9.66557 83.1449 -9.7057 83.5061 -9.95223 83.7067C-11.7353 85.1401 -13.5012 86.6422 -15.1982 88.1673C-15.3072 88.2647 -15.4448 88.3163 -15.5824 88.3163C-15.7372 88.3163 -15.8977 88.2533 -16.0066 88.1271L-16.0124 88.1214ZM149.096 84.6413C147.33 83.1907 145.507 81.7631 143.667 80.4101C143.414 80.2209 143.357 79.8654 143.546 79.6074C143.736 79.3551 144.091 79.2978 144.349 79.487C146.201 80.8515 148.047 82.2906 149.824 83.7526C150.071 83.9533 150.105 84.3145 149.905 84.561C149.79 84.6986 149.629 84.7674 149.463 84.7674C149.337 84.7674 149.205 84.7273 149.102 84.6355L149.096 84.6413ZM141.809 79.0685C139.636 77.5262 137.383 76.0355 135.118 74.6366C134.849 74.4703 134.763 74.1149 134.929 73.8454C135.095 73.5759 135.451 73.4899 135.72 73.6562C138.008 75.0666 140.278 76.5745 142.474 78.1282C142.732 78.3117 142.795 78.6671 142.612 78.9251C142.503 79.0857 142.325 79.1659 142.142 79.1659C142.027 79.1659 141.912 79.1315 141.809 79.0627V79.0685ZM-4.3393 78.7302C-4.52277 78.4722 -4.4597 78.111 -4.2017 77.9333C-3.57103 77.4861 -2.93463 77.0503 -2.2925 76.6146C-2.02877 76.4369 -1.6733 76.5057 -1.49557 76.7694C-1.31783 77.0331 -1.38664 77.3886 -1.65037 77.5663C-2.28677 77.9963 -2.91744 78.4321 -3.54237 78.8735C-3.63984 78.9423 -3.76023 78.9767 -3.8749 78.9767C-4.05263 78.9767 -4.23037 78.8907 -4.34503 78.7359L-4.3393 78.7302ZM3.37204 73.6562C3.2115 73.3867 3.2975 73.0313 3.56697 72.8707C5.8775 71.4833 8.25683 70.1531 10.6476 68.9147C10.9286 68.7657 11.2726 68.8803 11.4216 69.1613C11.565 69.4422 11.456 69.7862 11.1751 69.9353C8.80724 71.1622 6.44509 72.4809 4.15749 73.8569C4.06576 73.9142 3.96257 73.9371 3.8651 73.9371C3.67017 73.9371 3.48097 73.8397 3.37204 73.6619V73.6562ZM129.167 71.1851C128.496 70.8182 127.826 70.4627 127.149 70.1073C126.868 69.9639 126.759 69.6142 126.908 69.3333C127.051 69.0523 127.401 68.9434 127.682 69.0925C128.364 69.4479 129.047 69.8091 129.723 70.1761C130.004 70.3251 130.102 70.6749 129.953 70.9558C129.849 71.145 129.654 71.2539 129.448 71.2539C129.356 71.2539 129.259 71.231 129.173 71.1851H129.167ZM12.4594 68.6338C12.316 68.3471 12.4364 68.0089 12.7174 67.8655C14.7871 66.8393 16.9142 65.8646 19.0412 64.9587C19.3279 64.8383 19.6662 64.9702 19.7923 65.2626C19.9184 65.555 19.7808 65.8933 19.4884 66.0137C17.3843 66.9138 15.2802 67.8827 13.2276 68.8975C13.1474 68.9377 13.0614 68.9549 12.9754 68.9549C12.7632 68.9549 12.5626 68.8402 12.4594 68.6338ZM119.919 66.6329C117.832 65.7098 115.694 64.8326 113.561 64.0299C113.263 63.9153 113.114 63.5885 113.228 63.2903C113.343 62.9922 113.67 62.8431 113.968 62.9578C116.124 63.7719 118.279 64.6549 120.384 65.5894C120.67 65.7155 120.802 66.0538 120.676 66.3462C120.579 66.5583 120.372 66.6902 120.149 66.6902C120.074 66.6902 119.994 66.673 119.919 66.6386V66.6329ZM111.405 63.2387C108.894 62.3443 106.32 61.513 103.757 60.7791C103.453 60.6931 103.275 60.3721 103.361 60.0682C103.447 59.7643 103.768 59.5866 104.072 59.6726C106.658 60.4122 109.255 61.2493 111.789 62.1551C112.087 62.2641 112.242 62.5909 112.139 62.889C112.053 63.1241 111.835 63.2674 111.6 63.2674C111.537 63.2674 111.474 63.2559 111.405 63.233V63.2387ZM26.2538 62.7457C26.1506 62.4475 26.3054 62.1207 26.6035 62.0118C27.3316 61.7538 28.0655 61.5015 28.8051 61.255C29.1032 61.1518 29.43 61.3181 29.5275 61.6162C29.625 61.9143 29.4644 62.2411 29.1663 62.3386C28.4382 62.5794 27.71 62.8317 26.9876 63.0839C26.9246 63.1069 26.8615 63.1183 26.7984 63.1183C26.5634 63.1183 26.3398 62.9693 26.2595 62.7342L26.2538 62.7457ZM35.0487 59.9535C34.9627 59.6497 35.1462 59.3343 35.45 59.2483C38.0472 58.5431 40.696 57.9067 43.3334 57.3678C43.6487 57.3047 43.9468 57.5054 44.0099 57.815C44.073 58.1246 43.8723 58.4285 43.5627 58.4915C40.9483 59.0247 38.3224 59.6554 35.7482 60.3549C35.6966 60.3663 35.645 60.3778 35.5991 60.3778C35.3468 60.3778 35.1175 60.2115 35.0487 59.9535ZM97.0891 59.0706C96.3438 58.8986 95.5984 58.7381 94.8474 58.5833C94.5378 58.5202 94.3371 58.2163 94.4059 57.9067C94.469 57.5971 94.7786 57.3965 95.0825 57.4653C95.8393 57.6258 96.596 57.7863 97.3471 57.9583C97.6567 58.0271 97.8516 58.3367 97.7771 58.6463C97.714 58.9101 97.479 59.0935 97.221 59.0935C97.1808 59.0935 97.135 59.0935 97.0948 59.0821L97.0891 59.0706ZM45.1451 57.5914C45.0878 57.2818 45.2942 56.9837 45.6038 56.9206C47.8684 56.5021 50.179 56.1351 52.4666 55.837C52.7819 55.7911 53.0686 56.0147 53.1087 56.3301C53.1488 56.6454 52.931 56.9321 52.6156 56.9722C50.3452 57.2646 48.0576 57.6258 45.8159 58.0443C45.7815 58.0501 45.7471 58.0558 45.7127 58.0558C45.4432 58.0558 45.2024 57.8609 45.1508 57.5857L45.1451 57.5914ZM86.9354 57.1958C84.6764 56.8747 82.3774 56.611 80.0955 56.4103C79.7802 56.3817 79.5451 56.1065 79.5738 55.7911C79.6024 55.4758 79.8776 55.2407 80.193 55.2694C82.492 55.4701 84.814 55.7338 87.0959 56.0606C87.4112 56.1065 87.6291 56.3931 87.5832 56.7085C87.5431 56.9951 87.2966 57.2015 87.0156 57.2015C86.987 57.2015 86.964 57.2015 86.9354 57.2015V57.1958ZM77.8079 56.2326C75.1534 56.0491 72.453 55.9459 69.7812 55.9287C69.4659 55.9287 69.2079 55.6707 69.2136 55.3497C69.2136 55.0343 69.4716 54.7821 69.787 54.7821C72.4816 54.7993 75.2107 54.9025 77.8882 55.0859C78.2035 55.1089 78.4443 55.3841 78.4214 55.6994C78.3984 56.0033 78.1462 56.2326 77.848 56.2326C77.8366 56.2326 77.8194 56.2326 77.8079 56.2326ZM59.9944 55.6707C59.9715 55.3554 60.2123 55.0802 60.5276 55.063C61.2959 55.0114 62.0699 54.9713 62.8382 54.9311C63.1535 54.9139 63.423 55.1605 63.4402 55.4758C63.4574 55.7911 63.2108 56.0606 62.8955 56.0778C62.1272 56.1122 61.3647 56.1581 60.6022 56.2097C60.5907 56.2097 60.5792 56.2097 60.562 56.2097C60.2639 56.2097 60.0116 55.9746 59.9887 55.6765L59.9944 55.6707Z" fill="#D1D1D1"/>
<path d="M542.013 113.17V113.744H431.589L386.382 68.5363H298.845L278.779 88.603H-13.4954V88.0297H278.538L298.604 67.963H386.623L431.83 113.17H542.013Z" fill="#BABABA"/>
<path d="M542.013 106.623V107.196H431.589L386.382 61.9889H298.845L278.779 82.0555H-13.4954V81.4822H278.538L298.604 61.4155H386.623L431.83 106.623H542.013Z" fill="#BABABA"/>
<path d="M542.013 100.07V100.643H431.589L386.382 55.4357H298.845L278.779 75.5023H-13.4954V74.929H278.538L298.604 54.8623H386.623L431.83 100.07H542.013Z" fill="#BABABA"/>
<path d="M542.013 93.5222V94.0955H431.589L386.382 48.8882H298.845L278.779 68.9548H-13.4954V68.3815H278.538L298.604 48.3148H386.623L431.83 93.5222H542.013Z" fill="#BABABA"/>
<path d="M542.013 86.969V87.5423H431.589L386.382 42.335H298.845L278.779 62.4016H-13.4954V61.8283H278.538L298.604 41.7616H386.623L431.83 86.969H542.013Z" fill="#BABABA"/>
<path d="M336.777 251.47L328.515 258.12L332.408 264.857L342.304 261.022C343.892 262.988 345.681 264.777 347.647 266.365L343.811 276.261L350.548 280.154L357.199 271.892C359.527 272.792 361.969 273.457 364.503 273.853L366.131 284.328H373.911L375.54 273.853C378.074 273.457 380.516 272.792 382.844 271.892L389.495 280.154L396.231 276.261L392.396 266.365C394.362 264.777 396.151 262.988 397.739 261.022L407.635 264.857L411.522 258.12L403.26 251.47C404.161 249.142 404.826 246.7 405.221 244.166L415.696 242.543V234.763L405.221 233.135C404.826 230.6 404.161 228.158 403.26 225.83L411.522 219.18L407.629 212.443L397.733 216.279C396.145 214.312 394.357 212.523 392.39 210.935L396.226 201.039L389.489 197.146L382.844 205.408C380.516 204.508 378.074 203.843 375.54 203.447L373.911 192.973H366.131L364.503 203.447C361.969 203.843 359.527 204.508 357.199 205.408L350.548 197.146L343.811 201.034L347.647 210.929C345.681 212.518 343.892 214.306 342.304 216.273L332.408 212.437L328.515 219.174L336.777 225.825C335.877 228.152 335.211 230.595 334.816 233.129L324.341 234.757V242.537L334.816 244.16C335.211 246.694 335.877 249.136 336.777 251.464V251.47ZM342.298 238.65C342.298 223.342 354.705 210.935 370.013 210.935C385.321 210.935 397.728 223.342 397.728 238.65C397.728 253.958 385.321 266.365 370.013 266.365C354.705 266.365 342.298 253.958 342.298 238.65Z" fill="#E0E0E0"/>
<path d="M369.847 185.554L366.046 188.609L367.834 191.705L372.381 189.945C373.109 190.845 373.935 191.671 374.841 192.399L373.08 196.951L376.176 198.74L379.232 194.939C380.304 195.352 381.422 195.661 382.592 195.839L383.337 200.655H386.915L387.66 195.839C388.824 195.656 389.948 195.352 391.02 194.939L394.076 198.74L397.172 196.951L395.412 192.399C396.318 191.671 397.138 190.845 397.866 189.945L402.412 191.705L404.201 188.609L400.4 185.554C400.813 184.481 401.122 183.363 401.3 182.194L406.116 181.449V177.871L401.3 177.126C401.116 175.962 400.813 174.838 400.4 173.766L404.201 170.71L402.412 167.614L397.866 169.374C397.138 168.474 396.312 167.648 395.412 166.92L397.172 162.368L394.076 160.579L391.02 164.38C389.948 163.968 388.824 163.658 387.66 163.48L386.915 158.664H383.337L382.592 163.48C381.428 163.658 380.304 163.968 379.232 164.38L376.176 160.585L373.08 162.374L374.846 166.926C373.94 167.654 373.121 168.48 372.387 169.38L367.84 167.62L366.051 170.716L369.853 173.772C369.44 174.844 369.13 175.967 368.952 177.131L364.136 177.877V181.454L368.952 182.2C369.136 183.363 369.44 184.487 369.853 185.559L369.847 185.554ZM372.387 179.66C372.387 172.625 378.091 166.92 385.126 166.92C392.161 166.92 397.866 172.625 397.866 179.66C397.866 186.695 392.161 192.399 385.126 192.399C378.091 192.399 372.387 186.695 372.387 179.66Z" fill="#E0E0E0"/>
</g>
</g>
<defs>
<radialGradient id="paint0_radial_240_204" cx="0" cy="0" r="1" gradientUnits="userSpaceOnUse" gradientTransform="translate(69.2709 186.792) rotate(180) scale(45.6201 45.6201)">
<stop stop-color="white" stop-opacity="0"/>
<stop offset="0.38" stop-color="white" stop-opacity="0"/>
<stop offset="0.47" stop-color="#FDFDFD" stop-opacity="0.02"/>
<stop offset="0.56" stop-color="#F9F9F9" stop-opacity="0.08"/>
<stop offset="0.65" stop-color="#F2F2F2" stop-opacity="0.19"/>
<stop offset="0.74" stop-color="#E8E8E8" stop-opacity="0.34"/>
<stop offset="0.83" stop-color="#DCDCDC" stop-opacity="0.53"/>
<stop offset="0.92" stop-color="#CCCCCC" stop-opacity="0.76"/>
<stop offset="1" stop-color="#BDBDBD"/>
</radialGradient>
<radialGradient id="paint1_radial_240_204" cx="0" cy="0" r="1" gradientUnits="userSpaceOnUse" gradientTransform="translate(69.271 186.792) rotate(180) scale(17.4351 17.4351)">
<stop stop-color="white" stop-opacity="0"/>
<stop offset="0.38" stop-color="white" stop-opacity="0"/>
<stop offset="0.47" stop-color="#FDFDFD" stop-opacity="0.02"/>
<stop offset="0.56" stop-color="#F9F9F9" stop-opacity="0.08"/>
<stop offset="0.65" stop-color="#F2F2F2" stop-opacity="0.19"/>
<stop offset="0.74" stop-color="#E8E8E8" stop-opacity="0.34"/>
<stop offset="0.83" stop-color="#DCDCDC" stop-opacity="0.53"/>
<stop offset="0.92" stop-color="#CCCCCC" stop-opacity="0.76"/>
<stop offset="1" stop-color="#BDBDBD"/>
</radialGradient>
<linearGradient id="paint2_linear_240_204" x1="30.4104" y1="114.036" x2="-38.2405" y2="114.036" gradientUnits="userSpaceOnUse">
<stop stop-color="#C7C7C7" stop-opacity="0.88"/>
<stop offset="0.27" stop-color="#CACACA" stop-opacity="0.9"/>
<stop offset="0.68" stop-color="#D5D5D5" stop-opacity="0.95"/>
<stop offset="1" stop-color="#E0E0E0"/>
</linearGradient>
<linearGradient id="paint3_linear_240_204" x1="194.005" y1="177.561" x2="149.285" y2="177.561" gradientUnits="userSpaceOnUse">
<stop stop-color="#C7C7C7" stop-opacity="0.88"/>
<stop offset="0.27" stop-color="#CACACA" stop-opacity="0.9"/>
<stop offset="0.68" stop-color="#D5D5D5" stop-opacity="0.95"/>
<stop offset="1" stop-color="#E0E0E0"/>
</linearGradient>
<linearGradient id="paint4_linear_240_204" x1="179.89" y1="177.561" x2="163.401" y2="177.561" gradientUnits="userSpaceOnUse">
<stop stop-color="#C7C7C7" stop-opacity="0.88"/>
<stop offset="0.27" stop-color="#CACACA" stop-opacity="0.9"/>
<stop offset="0.68" stop-color="#D5D5D5" stop-opacity="0.95"/>
<stop offset="1" stop-color="#E0E0E0"/>
</linearGradient>
<linearGradient id="paint5_linear_240_204" x1="181.914" y1="223.531" x2="-47.0353" y2="223.531" gradientUnits="userSpaceOnUse">
<stop stop-color="#E0E0E0" stop-opacity="0.2"/>
<stop offset="0.13" stop-color="#DBDBDB" stop-opacity="0.33"/>
<stop offset="0.41" stop-color="#D2D2D2" stop-opacity="0.57"/>
<stop offset="0.66" stop-color="#CCCCCC" stop-opacity="0.74"/>
<stop offset="0.86" stop-color="#C8C8C8" stop-opacity="0.85"/>
<stop offset="1" stop-color="#C7C7C7" stop-opacity="0.88"/>
</linearGradient>
<linearGradient id="paint6_linear_240_204" x1="178.893" y1="110.212" x2="70.2745" y2="110.212" gradientUnits="userSpaceOnUse">
<stop stop-color="#C7C7C7" stop-opacity="0.88"/>
<stop offset="0.14" stop-color="#C8C8C8" stop-opacity="0.85"/>
<stop offset="0.34" stop-color="#CCCCCC" stop-opacity="0.74"/>
<stop offset="0.59" stop-color="#D2D2D2" stop-opacity="0.57"/>
<stop offset="0.87" stop-color="#DBDBDB" stop-opacity="0.33"/>
<stop offset="1" stop-color="#E0E0E0" stop-opacity="0.2"/>
</linearGradient>
<radialGradient id="paint7_radial_240_204" cx="0" cy="0" r="1" gradientUnits="userSpaceOnUse" gradientTransform="translate(224.031 225.87) scale(2.75773)">
<stop stop-color="#C7C7C7" stop-opacity="0.88"/>
<stop offset="0.14" stop-color="#C8C8C8" stop-opacity="0.85"/>
<stop offset="0.34" stop-color="#CCCCCC" stop-opacity="0.74"/>
<stop offset="0.59" stop-color="#D2D2D2" stop-opacity="0.57"/>
<stop offset="0.87" stop-color="#DBDBDB" stop-opacity="0.33"/>
<stop offset="1" stop-color="#E0E0E0" stop-opacity="0.2"/>
</radialGradient>
<radialGradient id="paint8_radial_240_204" cx="0" cy="0" r="1" gradientUnits="userSpaceOnUse" gradientTransform="translate(233.72 230.881) rotate(180) scale(2.75773)">
<stop stop-color="#C7C7C7" stop-opacity="0.88"/>
<stop offset="0.14" stop-color="#C8C8C8" stop-opacity="0.85"/>
<stop offset="0.34" stop-color="#CCCCCC" stop-opacity="0.74"/>
<stop offset="0.59" stop-color="#D2D2D2" stop-opacity="0.57"/>
<stop offset="0.87" stop-color="#DBDBDB" stop-opacity="0.33"/>
<stop offset="1" stop-color="#E0E0E0" stop-opacity="0.2"/>
</radialGradient>
<radialGradient id="paint9_radial_240_204" cx="0" cy="0" r="1" gradientUnits="userSpaceOnUse" gradientTransform="translate(245.588 235.892) rotate(180) scale(2.75773)">
<stop stop-color="#C7C7C7" stop-opacity="0.88"/>
<stop offset="0.14" stop-color="#C8C8C8" stop-opacity="0.85"/>
<stop offset="0.34" stop-color="#CCCCCC" stop-opacity="0.74"/>
<stop offset="0.59" stop-color="#D2D2D2" stop-opacity="0.57"/>
<stop offset="0.87" stop-color="#DBDBDB" stop-opacity="0.33"/>
<stop offset="1" stop-color="#E0E0E0" stop-opacity="0.2"/>
</radialGradient>
<radialGradient id="paint10_radial_240_204" cx="0" cy="0" r="1" gradientUnits="userSpaceOnUse" gradientTransform="translate(259.956 240.909) rotate(180) scale(2.75773)">
<stop stop-color="#C7C7C7" stop-opacity="0.88"/>
<stop offset="0.14" stop-color="#C8C8C8" stop-opacity="0.85"/>
<stop offset="0.34" stop-color="#CCCCCC" stop-opacity="0.74"/>
<stop offset="0.59" stop-color="#D2D2D2" stop-opacity="0.57"/>
<stop offset="0.87" stop-color="#DBDBDB" stop-opacity="0.33"/>
<stop offset="1" stop-color="#E0E0E0" stop-opacity="0.2"/>
</radialGradient>
</defs>
</svg>
