<svg width="24" height="24" viewBox="0 0 24 24" fill="none" xmlns="http://www.w3.org/2000/svg">
<path d="M21.9843 10.7232L17.7562 14.4132L19.0228 19.9069C19.0898 20.1941 19.0707 20.4947 18.9678 20.7711C18.8649 21.0475 18.6828 21.2874 18.4443 21.4609C18.2058 21.6344 17.9215 21.7337 17.6268 21.7464C17.3322 21.7592 17.0404 21.6848 16.7878 21.5326L11.9962 18.6263L7.21495 21.5326C6.96236 21.6848 6.6705 21.7592 6.37586 21.7464C6.08122 21.7337 5.79688 21.6344 5.55838 21.4609C5.31988 21.2874 5.13781 21.0475 5.03493 20.7711C4.93205 20.4947 4.91293 20.1941 4.97995 19.9069L6.24464 14.4188L2.01557 10.7232C1.79189 10.5303 1.63015 10.2756 1.55063 9.99113C1.4711 9.70666 1.47733 9.40504 1.56855 9.1241C1.65976 8.84315 1.83189 8.59539 2.06335 8.41188C2.29481 8.22838 2.57529 8.11729 2.86964 8.09256L8.44401 7.60974L10.6199 2.41974C10.7336 2.14742 10.9252 1.9148 11.1708 1.75117C11.4164 1.58755 11.7049 1.50024 11.9999 1.50024C12.295 1.50024 12.5835 1.58755 12.8291 1.75117C13.0747 1.9148 13.2663 2.14742 13.3799 2.41974L15.5624 7.60974L21.1349 8.09256C21.4293 8.11729 21.7098 8.22838 21.9412 8.41188C22.1727 8.59539 22.3448 8.84315 22.436 9.1241C22.5272 9.40504 22.5335 9.70666 22.454 9.99113C22.3744 10.2756 22.2127 10.5303 21.989 10.7232H21.9843Z" fill="#706CEF"/>
</svg>
