<svg width="33" height="32" viewBox="0 0 33 32" fill="none" xmlns="http://www.w3.org/2000/svg">
<g clip-path="url(#clip0_50_2701)">
<path d="M10.616 3.02666C10.76 2.95999 10.9067 2.89599 11.056 2.83466L11.516 2.65466C13.7067 1.84533 16.5987 1.48399 21.4893 2.70666C23.6747 3.25333 25.316 4.95199 26.38 6.86666C27.716 9.27199 28.5 12.504 28.5 16C28.5 19.4973 27.716 22.728 26.38 25.1333C25.3147 27.048 23.6733 28.7467 21.4893 29.2933C16.5987 30.516 13.7067 30.1547 11.516 29.3467L11.0573 29.1653C10.9096 29.1042 10.7629 29.0407 10.6173 28.9747C8.75467 28.1307 7.23333 26.3427 6.188 24.124C5.13067 21.88 4.5 19.0787 4.5 16C4.5 12.9213 5.13067 10.12 6.188 7.87599C7.23333 5.65733 8.75333 3.86933 10.616 3.02666ZM20.5 5.33333C19.3627 5.33333 18.0533 6.17866 16.952 8.16266C15.8733 10.1013 15.1667 12.8693 15.1667 16C15.1667 19.1307 15.8733 21.8987 16.952 23.8373C18.0533 25.8213 19.3627 26.6667 20.5 26.6667C21.6373 26.6667 22.9467 25.8213 24.048 23.8373C25.1267 21.8987 25.8333 19.1307 25.8333 16C25.8333 12.8693 25.1267 10.1013 24.048 8.16266C22.9467 6.17866 21.6373 5.33333 20.5 5.33333ZM20.5 11.3333C21.4413 11.3333 22.1133 12.0787 22.5107 12.8733C22.928 13.708 23.1667 14.8147 23.1667 16C23.1667 17.1867 22.9267 18.292 22.5107 19.1267C22.1133 19.9213 21.4413 20.6667 20.5 20.6667C19.5587 20.6667 18.8867 19.9213 18.4893 19.1267C18.0733 18.292 17.8333 17.1853 17.8333 16C17.8333 14.8133 18.0733 13.708 18.4893 12.8733C18.8867 12.08 19.5587 11.3333 20.5 11.3333Z" fill="#6763EE"/>
</g>
<defs>
<clipPath id="clip0_50_2701">
<rect width="32" height="32" fill="white" transform="translate(0.5)"/>
</clipPath>
</defs>
</svg>
