<svg width="33" height="32" viewBox="0 0 33 32" fill="none" xmlns="http://www.w3.org/2000/svg">
<path d="M8.5 10.6667H13.8333" stroke="white" stroke-width="2" stroke-linecap="round" stroke-linejoin="round"/>
<path d="M28.2773 12H24.808C22.428 12 20.5 13.7907 20.5 16C20.5 18.2093 22.4293 20 24.8067 20H28.2773C28.3893 20 28.444 20 28.4907 19.9973C29.2107 19.9533 29.784 19.4213 29.8307 18.7533C29.8333 18.7107 29.8333 18.6587 29.8333 18.556V13.444C29.8333 13.3413 29.8333 13.2893 29.8307 13.2467C29.7827 12.5787 29.2107 12.0467 28.4907 12.0027C28.4453 12 28.3893 12 28.2773 12Z" stroke="white" stroke-width="2"/>
<path d="M28.4534 12C28.3494 9.50401 28.0161 7.97334 26.9374 6.89601C25.3761 5.33334 22.8614 5.33334 17.8334 5.33334H13.8334C8.80542 5.33334 6.29075 5.33334 4.72941 6.89601C3.16675 8.45734 3.16675 10.972 3.16675 16C3.16675 21.028 3.16675 23.5427 4.72941 25.104C6.29075 26.6667 8.80542 26.6667 13.8334 26.6667H17.8334C22.8614 26.6667 25.3761 26.6667 26.9374 25.104C28.0161 24.0267 28.3507 22.496 28.4534 20" stroke="white" stroke-width="2"/>
<path d="M24.488 16H24.5014" stroke="white" stroke-width="2" stroke-linecap="round" stroke-linejoin="round"/>
</svg>
