<svg width="24" height="25" viewBox="0 0 24 25" fill="none" xmlns="http://www.w3.org/2000/svg">
<g clip-path="url(#clip0_117_873)">
<path d="M0.512212 12.3554C0.511649 14.3876 1.04265 16.3719 2.05234 18.1209L0.415649 24.0967L6.53115 22.4932C8.22261 23.414 10.1178 23.8965 12.0436 23.8966H12.0487C18.4064 23.8966 23.5816 18.7232 23.5844 12.3644C23.5856 9.28317 22.3867 6.38573 20.2085 4.20586C18.0307 2.02617 15.1343 0.825137 12.0482 0.82373C5.68984 0.82373 0.514931 5.99686 0.512306 12.3554" fill="url(#paint0_linear_117_873)"/>
<path d="M0.100313 12.3515C0.0996563 14.4568 0.649687 16.5121 1.69537 18.3237L0 24.5138L6.33478 22.8528C8.08022 23.8045 10.0454 24.3062 12.0451 24.307H12.0502C18.636 24.307 23.9972 18.9475 24 12.3611C24.0011 9.16906 22.7591 6.16747 20.5031 3.9095C18.2468 1.65181 15.2468 0.407563 12.0502 0.40625C5.46337 0.40625 0.102938 5.765 0.100313 12.3515ZM3.87281 18.0118L3.63628 17.6363C2.64197 16.0553 2.11716 14.2283 2.11791 12.3523C2.12006 6.87772 6.57544 2.42375 12.054 2.42375C14.7071 2.42488 17.2005 3.45913 19.0759 5.33563C20.9512 7.21231 21.9831 9.707 21.9824 12.3603C21.98 17.8348 17.5245 22.2894 12.0502 22.2894H12.0463C10.2638 22.2884 8.51569 21.8097 6.99113 20.9052L6.62831 20.69L2.86912 21.6756L3.87281 18.0117V18.0118Z" fill="url(#paint1_linear_117_873)"/>
<path d="M9.06358 7.35781C8.8399 6.86066 8.60449 6.85063 8.39177 6.84191C8.21758 6.83441 8.01846 6.83497 7.81952 6.83497C7.6204 6.83497 7.29687 6.90988 7.0234 7.20847C6.74965 7.50735 5.97827 8.2296 5.97827 9.69856C5.97827 11.1676 7.04824 12.5873 7.1974 12.7867C7.34674 12.9857 9.26299 16.0967 12.2979 17.2935C14.8201 18.2881 15.3334 18.0903 15.8808 18.0404C16.4283 17.9908 17.6474 17.3184 17.8961 16.6212C18.1451 15.924 18.1451 15.3265 18.0704 15.2016C17.9958 15.0772 17.7967 15.0025 17.4981 14.8532C17.1994 14.7039 15.7315 13.9815 15.4578 13.8819C15.1841 13.7823 14.985 13.7326 14.7859 14.0316C14.5868 14.3301 14.015 15.0025 13.8407 15.2016C13.6666 15.4012 13.4923 15.426 13.1938 15.2767C12.8951 15.1269 11.9335 14.812 10.7926 13.7949C9.90499 13.0034 9.30574 12.0261 9.13155 11.7271C8.95737 11.4286 9.1129 11.2668 9.26262 11.118C9.39677 10.9843 9.5613 10.7694 9.71074 10.5951C9.85962 10.4207 9.9093 10.2963 10.0089 10.0972C10.1085 9.89788 10.0586 9.7235 9.98412 9.57416C9.9093 9.42481 9.32908 7.94816 9.06358 7.35781Z" fill="white"/>
</g>
<defs>
<linearGradient id="paint0_linear_117_873" x1="1158.85" y1="2328.12" x2="1158.85" y2="0.82373" gradientUnits="userSpaceOnUse">
<stop stop-color="#1FAF38"/>
<stop offset="1" stop-color="#60D669"/>
</linearGradient>
<linearGradient id="paint1_linear_117_873" x1="1200" y1="2411.16" x2="1200" y2="0.40625" gradientUnits="userSpaceOnUse">
<stop stop-color="#F9F9F9"/>
<stop offset="1" stop-color="white"/>
</linearGradient>
<clipPath id="clip0_117_873">
<rect width="24" height="24.1875" fill="white" transform="translate(0 0.40625)"/>
</clipPath>
</defs>
</svg>
